0
SECTION
2
HEADER
9
$INSUNITS
70
1
9
$ACADVER
1
AC1014
9
$HANDSEED
5
FFFF
0
ENDSEC
0
SECTION
2
TABLES
0
TABLE
2
VPORT
5
8
100
AcDbSymbolTable
0
ENDTAB
0
TABLE
2
LTYPE
5
5
100
AcDbSymbolTable
0
LTYPE
5
14
100
AcDbSymbolTableRecord
100
AcDbLinetypeTableRecord
2
BYBLOCK
70
0
0
LTYPE
5
15
100
AcDbSymbolTableRecord
100
AcDbLinetypeTableRecord
2
BYLAYER
70
0
0
ENDTAB
0
TABLE
2
LAYER
5
2
100
AcDbSymbolTable
70
2
0
LAYER
5
50
100
AcDbSymbolTableRecord
100
AcDbLayerTableRecord
2
0
70
0
6
CONTINUOUS
0
ENDTAB
0
TABLE
2
STYLE
5
3
100
AcDbSymbolTable
70
1
0
STYLE
5
11
100
AcDbSymbolTableRecord
100
AcDbTextStyleTableRecord
2
STANDARD
70
0
0
ENDTAB
0
TABLE
2
VIEW
5
6
100
AcDbSymbolTable
70
0
0
ENDTAB
0
TABLE
2
UCS
5
7
100
AcDbSymbolTable
70
0
0
ENDTAB
0
TABLE
2
APPID
5
9
100
AcDbSymbolTable
70
2
0
APPID
5
12
100
AcDbSymbolTableRecord
100
AcDbRegAppTableRecord
2
ACAD
70
0
0
ENDTAB
0
TABLE
2
DIMSTYLE
5
A
100
AcDbSymbolTable
70
1
0
ENDTAB
0
TABLE
2
BLOCK_RECORD
5
1
100
AcDbSymbolTable
70
1
0
BLOCK_RECORD
5
1F
100
AcDbSymbolTableRecord
100
AcDbBlockTableRecord
2
*MODEL_SPACE
0
BLOCK_RECORD
5
1B
100
AcDbSymbolTableRecord
100
AcDbBlockTableRecord
2
*PAPER_SPACE
0
ENDTAB
0
ENDSEC
0
SECTION
2
BLOCKS
0
BLOCK
5
20
100
AcDbEntity
100
AcDbBlockBegin
2
*MODEL_SPACE
0
ENDBLK
5
21
100
AcDbEntity
100
AcDbBlockEnd
0
BLOCK
5
1C
100
AcDbEntity
100
AcDbBlockBegin
2
*PAPER_SPACE
0
ENDBLK
5
1D
100
AcDbEntity
100
AcDbBlockEnd
0
ENDSEC
0
SECTION
2
ENTITIES
0
CIRCLE
5
100
100
AcDbEntity
8
0
100
AcDbCircle
10
-0.07874015748031496
20
-0.074999999999999997
30
0
40
0.029999999999999988
0
CIRCLE
5
101
100
AcDbEntity
8
0
100
AcDbCircle
10
-0.07874015748031496
20
-1.0749999999999997
30
0
40
0.030000000000000054
0
LWPOLYLINE
5
102
100
AcDbEntity
8
0
100
AcDbPolyline
90
32
70
1
43
0.0
10
3.2782175923971155e-17
20
-0.36177350269189629
10
0
20
-0.78822649730810379
10
-0.010000000000000002
20
-0.79399999999999993
10
-5.4636959873285258e-18
20
-0.79977350269189618
10
3.8245871911299678e-17
20
-1.1330294372515228
10
-0.016970562748476938
20
-1.1499999999999999
10
-0.20669291338582677
20
-1.1499999999999999
10
-0.20669291338582679
20
-1.006773502691896
10
-0.19669291338582678
20
-1.0009999999999999
10
-0.20669291338582679
20
-0.99522649730810364
10
-0.20669291338582679
20
-0.86477350269189612
10
-0.19669291338582678
20
-0.85899999999999987
10
-0.20669291338582677
20
-0.85322649730810363
10
-0.20669291338582677
20
-0.72277350269189622
10
-0.19669291338582678
20
-0.71699999999999997
10
-0.20669291338582677
20
-0.71122649730810361
10
-0.20669291338582677
20
-0.5807735026918962
10
-0.19669291338582678
20
-0.57499999999999996
10
-0.20669291338582677
20
-0.56922649730810371
10
-0.20669291338582677
20
-0.4387735026918963
10
-0.19669291338582678
20
-0.433
10
-0.20669291338582677
20
-0.42722649730810375
10
-0.20669291338582677
20
-0.29677350269189628
10
-0.19669291338582678
20
-0.29100000000000004
10
-0.20669291338582677
20
-0.28522649730810373
10
-0.20669291338582677
20
-0.15477350269189627
10
-0.19669291338582678
20
-0.14899999999999999
10
-0.20669291338582677
20
-0.14322649730810372
10
-0.20669291338582677
20
0
10
0
20
0
10
4.9173263885956735e-17
20
-0.35022649730810368
10
-0.010000000000000002
20
-0.35599999999999993
0
LWPOLYLINE
5
103
100
AcDbEntity
8
0
100
AcDbPolyline
90
32
70
1
43
0.0
10
-0.016970562748476931
20
-1.1499999999999999
10
3.9611795908131813e-17
20
-1.1330294372515228
10
-5.4636959873285258e-18
20
-0.79977350269189618
10
-0.010000000000000002
20
-0.79399999999999993
10
0
20
-0.78822649730810379
10
3.2782175923971155e-17
20
-0.36177350269189623
10
-0.010000000000000002
20
-0.35599999999999993
10
4.9173263885956735e-17
20
-0.35022649730810368
10
0
20
0
10
-0.20669291338582677
20
0
10
-0.20669291338582677
20
-0.14322649730810372
10
-0.19669291338582678
20
-0.14899999999999999
10
-0.20669291338582677
20
-0.15477350269189627
10
-0.20669291338582677
20
-0.28522649730810373
10
-0.19669291338582678
20
-0.29100000000000004
10
-0.20669291338582677
20
-0.29677350269189628
10
-0.20669291338582677
20
-0.42722649730810375
10
-0.19669291338582678
20
-0.433
10
-0.20669291338582677
20
-0.4387735026918963
10
-0.20669291338582677
20
-0.56922649730810371
10
-0.19669291338582678
20
-0.57499999999999996
10
-0.20669291338582677
20
-0.5807735026918962
10
-0.20669291338582677
20
-0.71122649730810361
10
-0.19669291338582678
20
-0.71699999999999997
10
-0.20669291338582677
20
-0.72277350269189622
10
-0.20669291338582677
20
-0.85322649730810363
10
-0.19669291338582678
20
-0.85899999999999987
10
-0.20669291338582679
20
-0.86477350269189612
10
-0.20669291338582679
20
-0.99522649730810364
10
-0.19669291338582678
20
-1.0009999999999999
10
-0.20669291338582679
20
-1.006773502691896
10
-0.20669291338582677
20
-1.1499999999999999
0
CIRCLE
5
104
100
AcDbEntity
8
0
100
AcDbCircle
10
-0.07874015748031496
20
-1.0749999999999997
30
0
40
0.030000000000000054
0
CIRCLE
5
105
100
AcDbEntity
8
0
100
AcDbCircle
10
-0.07874015748031496
20
-0.074999999999999997
30
0
40
0.029999999999999988
0
ENDSEC
0
SECTION
2
OBJECTS
0
DICTIONARY
5
C
100
AcDbDictionary
3
ACAD_GROUP
350
D
3
ACAD_MLINESTYLE
350
17
0
DICTIONARY
5
D
100
AcDbDictionary
0
DICTIONARY
5
1A
330
C
100
AcDbDictionary
0
DICTIONARY
5
17
100
AcDbDictionary
0
ENDSEC
0
EOF
