0
SECTION
2
HEADER
9
$INSUNITS
70
1
9
$ACADVER
1
AC1014
9
$HANDSEED
5
FFFF
0
ENDSEC
0
SECTION
2
TABLES
0
TABLE
2
VPORT
5
8
100
AcDbSymbolTable
0
ENDTAB
0
TABLE
2
LTYPE
5
5
100
AcDbSymbolTable
0
LTYPE
5
14
100
AcDbSymbolTableRecord
100
AcDbLinetypeTableRecord
2
BYBLOCK
70
0
0
LTYPE
5
15
100
AcDbSymbolTableRecord
100
AcDbLinetypeTableRecord
2
BYLAYER
70
0
0
ENDTAB
0
TABLE
2
LAYER
5
2
100
AcDbSymbolTable
70
2
0
LAYER
5
50
100
AcDbSymbolTableRecord
100
AcDbLayerTableRecord
2
0
70
0
6
CONTINUOUS
0
ENDTAB
0
TABLE
2
STYLE
5
3
100
AcDbSymbolTable
70
1
0
STYLE
5
11
100
AcDbSymbolTableRecord
100
AcDbTextStyleTableRecord
2
STANDARD
70
0
0
ENDTAB
0
TABLE
2
VIEW
5
6
100
AcDbSymbolTable
70
0
0
ENDTAB
0
TABLE
2
UCS
5
7
100
AcDbSymbolTable
70
0
0
ENDTAB
0
TABLE
2
APPID
5
9
100
AcDbSymbolTable
70
2
0
APPID
5
12
100
AcDbSymbolTableRecord
100
AcDbRegAppTableRecord
2
ACAD
70
0
0
ENDTAB
0
TABLE
2
DIMSTYLE
5
A
100
AcDbSymbolTable
70
1
0
ENDTAB
0
TABLE
2
BLOCK_RECORD
5
1
100
AcDbSymbolTable
70
1
0
BLOCK_RECORD
5
1F
100
AcDbSymbolTableRecord
100
AcDbBlockTableRecord
2
*MODEL_SPACE
0
BLOCK_RECORD
5
1B
100
AcDbSymbolTableRecord
100
AcDbBlockTableRecord
2
*PAPER_SPACE
0
ENDTAB
0
ENDSEC
0
SECTION
2
BLOCKS
0
BLOCK
5
20
100
AcDbEntity
100
AcDbBlockBegin
2
*MODEL_SPACE
0
ENDBLK
5
21
100
AcDbEntity
100
AcDbBlockEnd
0
BLOCK
5
1C
100
AcDbEntity
100
AcDbBlockBegin
2
*PAPER_SPACE
0
ENDBLK
5
1D
100
AcDbEntity
100
AcDbBlockEnd
0
ENDSEC
0
SECTION
2
ENTITIES
0
CIRCLE
5
100
100
AcDbEntity
8
0
100
AcDbCircle
10
-0.07874015748031496
20
-0.074999999999999997
30
0
40
0.029999999999999988
0
CIRCLE
5
101
100
AcDbEntity
8
0
100
AcDbCircle
10
-0.07874015748031496
20
-1.0749999999999997
30
0
40
0.030000000000000054
0
LINE
5
102
100
AcDbEntity
8
0
100
AcDbLine
10
6.966212383843871e-17
20
-0.21577350269189621
30
0
11
-0.010000000000000002
21
-0.20999999999999994
31
0
0
LINE
5
103
100
AcDbEntity
8
0
100
AcDbLine
10
-0.010000000000000002
20
-0.20999999999999994
30
0
11
1.0927391974657052e-17
21
-0.20422649730810369
31
0
0
LINE
5
104
100
AcDbEntity
8
0
100
AcDbLine
10
1.0927391974657052e-17
20
-0.20422649730810369
30
0
11
0
21
0
31
0
0
LINE
5
105
100
AcDbEntity
8
0
100
AcDbLine
10
0
20
0
30
0
11
-0.20669291338582677
21
0
31
0
0
LINE
5
106
100
AcDbEntity
8
0
100
AcDbLine
10
-0.20669291338582677
20
0
30
0
11
-0.20669291338582677
21
-0.14322649730810372
31
0
0
LINE
5
107
100
AcDbEntity
8
0
100
AcDbLine
10
-0.20669291338582677
20
-0.14322649730810372
30
0
11
-0.19669291338582678
21
-0.14899999999999999
31
0
0
LINE
5
108
100
AcDbEntity
8
0
100
AcDbLine
10
-0.19669291338582678
20
-0.14899999999999999
30
0
11
-0.20669291338582677
21
-0.15477350269189627
31
0
0
LINE
5
109
100
AcDbEntity
8
0
100
AcDbLine
10
-0.20669291338582677
20
-0.15477350269189627
30
0
11
-0.20669291338582677
21
-0.28522649730810373
31
0
0
LINE
5
110
100
AcDbEntity
8
0
100
AcDbLine
10
-0.20669291338582677
20
-0.28522649730810373
30
0
11
-0.19669291338582678
21
-0.29100000000000004
31
0
0
LINE
5
111
100
AcDbEntity
8
0
100
AcDbLine
10
-0.19669291338582678
20
-0.29100000000000004
30
0
11
-0.20669291338582677
21
-0.29677350269189628
31
0
0
LINE
5
112
100
AcDbEntity
8
0
100
AcDbLine
10
-0.20669291338582677
20
-0.29677350269189628
30
0
11
-0.20669291338582677
21
-0.42722649730810375
31
0
0
LINE
5
113
100
AcDbEntity
8
0
100
AcDbLine
10
-0.20669291338582677
20
-0.42722649730810375
30
0
11
-0.19669291338582678
21
-0.433
31
0
0
LINE
5
114
100
AcDbEntity
8
0
100
AcDbLine
10
-0.19669291338582678
20
-0.433
30
0
11
-0.20669291338582677
21
-0.4387735026918963
31
0
0
LINE
5
115
100
AcDbEntity
8
0
100
AcDbLine
10
-0.20669291338582677
20
-0.4387735026918963
30
0
11
-0.20669291338582677
21
-0.56922649730810371
31
0
0
LINE
5
116
100
AcDbEntity
8
0
100
AcDbLine
10
-0.20669291338582677
20
-0.56922649730810371
30
0
11
-0.19669291338582678
21
-0.57499999999999996
31
0
0
LINE
5
117
100
AcDbEntity
8
0
100
AcDbLine
10
-0.19669291338582678
20
-0.57499999999999996
30
0
11
-0.20669291338582677
21
-0.5807735026918962
31
0
0
LINE
5
118
100
AcDbEntity
8
0
100
AcDbLine
10
-0.20669291338582677
20
-0.5807735026918962
30
0
11
-0.20669291338582677
21
-0.71122649730810361
31
0
0
LINE
5
119
100
AcDbEntity
8
0
100
AcDbLine
10
-0.20669291338582677
20
-0.71122649730810361
30
0
11
-0.19669291338582678
21
-0.71699999999999997
31
0
0
LINE
5
120
100
AcDbEntity
8
0
100
AcDbLine
10
-0.19669291338582678
20
-0.71699999999999997
30
0
11
-0.20669291338582677
21
-0.72277350269189622
31
0
0
LINE
5
121
100
AcDbEntity
8
0
100
AcDbLine
10
-0.20669291338582677
20
-0.72277350269189622
30
0
11
-0.20669291338582677
21
-0.85322649730810363
31
0
0
LINE
5
122
100
AcDbEntity
8
0
100
AcDbLine
10
-0.20669291338582677
20
-0.85322649730810363
30
0
11
-0.19669291338582678
21
-0.85899999999999987
31
0
0
LINE
5
123
100
AcDbEntity
8
0
100
AcDbLine
10
-0.19669291338582678
20
-0.85899999999999987
30
0
11
-0.20669291338582679
21
-0.86477350269189612
31
0
0
LINE
5
124
100
AcDbEntity
8
0
100
AcDbLine
10
-0.20669291338582679
20
-0.86477350269189612
30
0
11
-0.20669291338582679
21
-0.99522649730810364
31
0
0
LINE
5
125
100
AcDbEntity
8
0
100
AcDbLine
10
-0.20669291338582679
20
-0.99522649730810364
30
0
11
-0.19669291338582678
21
-1.0009999999999999
31
0
0
LINE
5
126
100
AcDbEntity
8
0
100
AcDbLine
10
-0.19669291338582678
20
-1.0009999999999999
30
0
11
-0.20669291338582679
21
-1.006773502691896
31
0
0
LINE
5
127
100
AcDbEntity
8
0
100
AcDbLine
10
-0.20669291338582679
20
-1.006773502691896
30
0
11
-0.20669291338582677
21
-1.1499999999999999
31
0
0
LINE
5
128
100
AcDbEntity
8
0
100
AcDbLine
10
-0.20669291338582677
20
-1.1499999999999999
30
0
11
-0.016970562748476938
21
-1.1499999999999999
31
0
0
LINE
5
129
100
AcDbEntity
8
0
100
AcDbLine
10
-0.016970562748476938
20
-1.1499999999999999
30
0
11
3.8245871911299678e-17
21
-1.1330294372515228
31
0
0
LINE
5
130
100
AcDbEntity
8
0
100
AcDbLine
10
3.8245871911299678e-17
20
-1.1330294372515228
30
0
11
6.966212383843871e-17
21
-0.21577350269189616
31
0
0
LINE
5
131
100
AcDbEntity
8
0
100
AcDbLine
10
3.9611795908131813e-17
20
-1.1330294372515228
30
0
11
-0.016970562748476931
21
-1.1499999999999999
31
0
0
LINE
5
132
100
AcDbEntity
8
0
100
AcDbLine
10
-0.016970562748476931
20
-1.1499999999999999
30
0
11
-0.20669291338582677
21
-1.1499999999999999
31
0
0
LINE
5
133
100
AcDbEntity
8
0
100
AcDbLine
10
-0.20669291338582677
20
-1.1499999999999999
30
0
11
-0.20669291338582679
21
-1.006773502691896
31
0
0
LINE
5
134
100
AcDbEntity
8
0
100
AcDbLine
10
-0.20669291338582679
20
-1.006773502691896
30
0
11
-0.19669291338582678
21
-1.0009999999999999
31
0
0
LINE
5
135
100
AcDbEntity
8
0
100
AcDbLine
10
-0.19669291338582678
20
-1.0009999999999999
30
0
11
-0.20669291338582679
21
-0.99522649730810364
31
0
0
LINE
5
136
100
AcDbEntity
8
0
100
AcDbLine
10
-0.20669291338582679
20
-0.99522649730810364
30
0
11
-0.20669291338582679
21
-0.86477350269189612
31
0
0
LINE
5
137
100
AcDbEntity
8
0
100
AcDbLine
10
-0.20669291338582679
20
-0.86477350269189612
30
0
11
-0.19669291338582678
21
-0.85899999999999987
31
0
0
LINE
5
138
100
AcDbEntity
8
0
100
AcDbLine
10
-0.19669291338582678
20
-0.85899999999999987
30
0
11
-0.20669291338582677
21
-0.85322649730810363
31
0
0
LINE
5
139
100
AcDbEntity
8
0
100
AcDbLine
10
-0.20669291338582677
20
-0.85322649730810363
30
0
11
-0.20669291338582677
21
-0.72277350269189622
31
0
0
LINE
5
140
100
AcDbEntity
8
0
100
AcDbLine
10
-0.20669291338582677
20
-0.72277350269189622
30
0
11
-0.19669291338582678
21
-0.71699999999999997
31
0
0
LINE
5
141
100
AcDbEntity
8
0
100
AcDbLine
10
-0.19669291338582678
20
-0.71699999999999997
30
0
11
-0.20669291338582677
21
-0.71122649730810361
31
0
0
LINE
5
142
100
AcDbEntity
8
0
100
AcDbLine
10
-0.20669291338582677
20
-0.71122649730810361
30
0
11
-0.20669291338582677
21
-0.5807735026918962
31
0
0
LINE
5
143
100
AcDbEntity
8
0
100
AcDbLine
10
-0.20669291338582677
20
-0.5807735026918962
30
0
11
-0.19669291338582678
21
-0.57499999999999996
31
0
0
LINE
5
144
100
AcDbEntity
8
0
100
AcDbLine
10
-0.19669291338582678
20
-0.57499999999999996
30
0
11
-0.20669291338582677
21
-0.56922649730810371
31
0
0
LINE
5
145
100
AcDbEntity
8
0
100
AcDbLine
10
-0.20669291338582677
20
-0.56922649730810371
30
0
11
-0.20669291338582677
21
-0.4387735026918963
31
0
0
LINE
5
146
100
AcDbEntity
8
0
100
AcDbLine
10
-0.20669291338582677
20
-0.4387735026918963
30
0
11
-0.19669291338582678
21
-0.433
31
0
0
LINE
5
147
100
AcDbEntity
8
0
100
AcDbLine
10
-0.19669291338582678
20
-0.433
30
0
11
-0.20669291338582677
21
-0.42722649730810375
31
0
0
LINE
5
148
100
AcDbEntity
8
0
100
AcDbLine
10
-0.20669291338582677
20
-0.42722649730810375
30
0
11
-0.20669291338582677
21
-0.29677350269189628
31
0
0
LINE
5
149
100
AcDbEntity
8
0
100
AcDbLine
10
-0.20669291338582677
20
-0.29677350269189628
30
0
11
-0.19669291338582678
21
-0.29100000000000004
31
0
0
LINE
5
150
100
AcDbEntity
8
0
100
AcDbLine
10
-0.19669291338582678
20
-0.29100000000000004
30
0
11
-0.20669291338582677
21
-0.28522649730810373
31
0
0
LINE
5
151
100
AcDbEntity
8
0
100
AcDbLine
10
-0.20669291338582677
20
-0.28522649730810373
30
0
11
-0.20669291338582677
21
-0.15477350269189627
31
0
0
LINE
5
152
100
AcDbEntity
8
0
100
AcDbLine
10
-0.20669291338582677
20
-0.15477350269189627
30
0
11
-0.19669291338582678
21
-0.14899999999999999
31
0
0
LINE
5
153
100
AcDbEntity
8
0
100
AcDbLine
10
-0.19669291338582678
20
-0.14899999999999999
30
0
11
-0.20669291338582677
21
-0.14322649730810372
31
0
0
LINE
5
154
100
AcDbEntity
8
0
100
AcDbLine
10
-0.20669291338582677
20
-0.14322649730810372
30
0
11
-0.20669291338582677
21
0
31
0
0
LINE
5
155
100
AcDbEntity
8
0
100
AcDbLine
10
-0.20669291338582677
20
0
30
0
11
0
21
0
31
0
0
LINE
5
156
100
AcDbEntity
8
0
100
AcDbLine
10
0
20
0
30
0
11
1.0927391974657052e-17
21
-0.20422649730810369
31
0
0
LINE
5
157
100
AcDbEntity
8
0
100
AcDbLine
10
1.0927391974657052e-17
20
-0.20422649730810369
30
0
11
-0.010000000000000002
21
-0.20999999999999994
31
0
0
LINE
5
158
100
AcDbEntity
8
0
100
AcDbLine
10
-0.010000000000000002
20
-0.20999999999999994
30
0
11
6.966212383843871e-17
21
-0.21577350269189621
31
0
0
LINE
5
159
100
AcDbEntity
8
0
100
AcDbLine
10
6.966212383843871e-17
20
-0.21577350269189621
30
0
11
3.9611795908131813e-17
21
-1.1330294372515228
31
0
0
CIRCLE
5
160
100
AcDbEntity
8
0
100
AcDbCircle
10
-0.07874015748031496
20
-1.0749999999999997
30
0
40
0.030000000000000054
0
CIRCLE
5
161
100
AcDbEntity
8
0
100
AcDbCircle
10
-0.07874015748031496
20
-0.074999999999999997
30
0
40
0.029999999999999988
0
ENDSEC
0
SECTION
2
OBJECTS
0
DICTIONARY
5
C
100
AcDbDictionary
3
ACAD_GROUP
350
D
3
ACAD_MLINESTYLE
350
17
0
DICTIONARY
5
D
100
AcDbDictionary
0
DICTIONARY
5
1A
330
C
100
AcDbDictionary
0
DICTIONARY
5
17
100
AcDbDictionary
0
ENDSEC
0
EOF
