700 0 1 0           
30 Autodesk Translation Framework 18 ASM 223.11.0.30 NT 24 Fri Oct 20 13:37:28 2017 
25.39999999999999858 9.999999999999999547e-07 1.000000000000000036e-10 
body $1 -1 $-1 $2 $-1 $3 #
rgb_color-st-attrib $-1 -1 $4 $-1 $0 0.627450980392156854 0.627450980392156854 0.627450980392156854 #
lump $-1 -1 $-1 $-1 $5 $0 #
transform $-1 -1 1 0 0 0 1 0 0 0 1 0 0 0 1 no_rotate no_reflect no_shear #
ATTRIB_CUSTOM-attrib $-1 -1 $-1 $1 $0 @20 Timestamp_attrib_def 1 1508153394006205 #
shell $6 -1 $-1 $-1 $-1 $7 $-1 $2 #
string_attrib-name_attrib-gen-attrib $-1 -1 $-1 $-1 $5 keep keep_kept ignore copy @17 ATF_ExternalShell @4 true #
face $8 -1 $-1 $9 $10 $5 $-1 $11 reversed single #
DXID-attrib $-1 -1 $-1 $-1 $7 @10 ASM ENTITY @1 0 #
face $12 -1 $-1 $13 $14 $5 $-1 $11 reversed single #
loop $-1 -1 $-1 $15 $16 $7 #
cone-surface $-1 -1 $-1 1.600000000000001643 0.3125000000000040523 -0.2750000000000001332 -2.658919916811075582e-16 -0 -1 0.08000000000000027922 0 -2.127135933448868022e-17 1 I I -0 1 0.08000000000000027922 reversed I I I I #
DXID-attrib $-1 -1 $-1 $-1 $9 @10 ASM ENTITY @1 1 #
face $17 -1 $-1 $18 $19 $5 $-1 $20 forward single #
loop $-1 -1 $-1 $21 $22 $9 #
loop $-1 -1 $-1 $-1 $23 $7 #
coedge $24 -1 $-1 $16 $16 $25 $26 forward $10 $-1 #
DXID-attrib $-1 -1 $-1 $-1 $13 @10 ASM ENTITY @1 2 #
face $27 -1 $-1 $28 $29 $5 $-1 $30 forward single #
loop $-1 -1 $-1 $-1 $31 $13 #
cone-surface $-1 -1 $-1 1.049999999999999822 0 0.4290670410846350591 -0 -1 -0 -0.01662313296960440945 0 -0.01867274618996496091 1 I I -0 -1 0.02499999999999999792 reversed I I I I #
loop $-1 -1 $-1 $-1 $32 $9 #
coedge $-1 -1 $-1 $22 $22 $33 $34 forward $14 $-1 #
coedge $-1 -1 $-1 $23 $23 $35 $36 forward $15 $-1 #
ATTRIB_CUSTOM-attrib $-1 -1 $-1 $-1 $16 @17 sketch_attrib_def 1 1 2 133 0 0 1 1 0 #
coedge $-1 -1 $-1 $25 $25 $16 $26 reversed $37 $-1 #
edge $-1 -1 $-1 $38 -3.141592653589793116 $38 3.141592653589793116 $25 $39 forward @7 unknown #
DXID-attrib $-1 -1 $-1 $-1 $18 @10 ASM ENTITY @1 3 #
face $40 -1 $-1 $41 $42 $5 $-1 $43 forward single #
loop $-1 -1 $-1 $-1 $44 $18 #
plane-surface $-1 -1 $-1 1.025000000000000133 0 0.8102362204724402606 1 0 -8.241450576105713725e-16 -3.244665581143981564e-16 0 -0.3937007874015747699 forward_v I I I I #
coedge $-1 -1 $-1 $45 $46 $47 $48 reversed $19 $-1 #
coedge $-1 -1 $-1 $32 $32 $49 $50 forward $21 $-1 #
coedge $-1 -1 $-1 $33 $33 $22 $34 reversed $42 $-1 #
edge $-1 -1 $-1 $51 -3.141592653589793116 $51 3.141592653589793116 $33 $52 forward @7 unknown #
coedge $-1 -1 $-1 $35 $35 $23 $36 reversed $53 $-1 #
edge $-1 -1 $-1 $54 -3.141592653589793116 $54 3.141592653589793116 $23 $55 forward @7 unknown #
loop $-1 -1 $-1 $56 $25 $57 #
vertex $-1 -1 $-1 $26 $58 #
ellipse-curve $-1 -1 $-1 1.600000000000001643 0.3125000000000040523 -0.2750000000000001887 -1.65984407912814888e-16 -0 -1 0.08000000000000027922 0 -2.127135933448868022e-17 1 I I #
DXID-attrib $-1 -1 $-1 $-1 $28 @10 ASM ENTITY @1 4 #
face $59 -1 $-1 $60 $61 $5 $-1 $62 forward single #
loop $-1 -1 $-1 $63 $33 $28 #
plane-surface $-1 -1 $-1 1.775000000000001243 0 0.02499999999999802033 -1.593222696976236778e-15 0 -1 -0.3937007874015747699 0 6.272530303056049445e-16 forward_v I I I I #
coedge $-1 -1 $-1 $64 $65 $46 $66 forward $29 $-1 #
coedge $-1 -1 $-1 $67 $31 $68 $69 reversed $19 $-1 #
coedge $-1 -1 $-1 $31 $67 $44 $66 reversed $19 $-1 #
coedge $-1 -1 $-1 $70 $71 $31 $48 forward $72 $-1 #
edge $-1 -1 $-1 $73 -0.8434025001649417819 $74 0.8434025001649190223 $47 $75 forward @7 unknown #
coedge $-1 -1 $-1 $49 $49 $32 $50 reversed $76 $-1 #
edge $-1 -1 $-1 $77 -3.141592653589793116 $77 3.141592653589793116 $49 $78 forward @7 unknown #
vertex $-1 -1 $-1 $34 $79 #
ellipse-curve $-1 -1 $-1 1.600000000000001643 0.3125000000000040523 0.02499999999999807931 -1.593222696976236778e-15 0 -1 0.08000000000000027922 0 -2.127135933448868022e-17 1 I I #
loop $-1 -1 $-1 $80 $35 $81 #
vertex $-1 -1 $-1 $36 $82 #
ellipse-curve $-1 -1 $-1 1.600000000000001643 0.3125000000000040523 -0.02500000000000016792 -2.534166882638252101e-16 0 1 0.08000000000000027922 0 -2.127135933448868022e-17 1 I I #
loop $-1 -1 $-1 $-1 $83 $57 #
face $84 -1 $-1 $85 $37 $5 $-1 $86 forward single #
point $-1 -1 $-1 1.52000000000000135 0.3125000000000040523 -0.2750000000000001332 #
DXID-attrib $-1 -1 $-1 $-1 $41 @10 ASM ENTITY @1 5 #
face $87 -1 $-1 $88 $76 $5 $-1 $89 forward single #
loop $-1 -1 $-1 $-1 $90 $41 #
plane-surface $-1 -1 $-1 1.775000000000001465 0 0.2749999999999979683 1 0 -2.222851230366673983e-15 -8.751382796719188349e-16 0 -0.3937007874015747699 forward_v I I I I #
loop $-1 -1 $-1 $-1 $91 $28 #
coedge $-1 -1 $-1 $92 $44 $93 $94 reversed $29 $-1 #
coedge $95 -1 $-1 $44 $92 $70 $96 reversed $29 $-1 #
edge $-1 -1 $-1 $74 0 $97 1.587499999999999911 $44 $98 forward @7 tangent #
coedge $-1 -1 $-1 $46 $45 $99 $100 reversed $19 $-1 #
coedge $-1 -1 $-1 $101 $102 $45 $69 forward $103 $-1 #
edge $-1 -1 $-1 $104 -1.587499999999999911 $73 -0 $45 $105 forward @7 tangent #
coedge $106 -1 $-1 $107 $47 $65 $96 forward $72 $-1 #
coedge $108 -1 $-1 $47 $109 $101 $110 reversed $72 $-1 #
loop $-1 -1 $-1 $111 $107 $112 #
vertex $-1 -1 $-1 $48 $113 #
vertex $-1 -1 $-1 $96 $114 #
ellipse-curve $-1 -1 $-1 1.049999999999999822 0 0.4290670410846350591 0 1 0 -0.01662313296960440945 0 -0.01867274618996496091 1 I I #
loop $-1 -1 $-1 $115 $49 $60 #
vertex $-1 -1 $-1 $50 $116 #
ellipse-curve $-1 -1 $-1 1.600000000000001643 0.3125000000000040523 0.2749999999999984679 1.173821600799596828e-15 0 1 0.08000000000000027922 0 -2.127135933448868022e-17 1 I I #
point $-1 -1 $-1 1.52000000000000135 0.3125000000000040523 0.0249999999999981036 #
loop $-1 -1 $-1 $-1 $117 $81 #
face $118 -1 $-1 $119 $53 $5 $-1 $120 forward single #
point $-1 -1 $-1 1.52000000000000135 0.3125000000000040523 -0.0250000000000001471 #
coedge $121 -1 $-1 $122 $123 $124 $125 forward $56 $-1 #
DXID-attrib $-1 -1 $-1 $-1 $57 @10 ASM ENTITY @2 14 #
face $126 -1 $-1 $127 $128 $5 $-1 $129 reversed single #
plane-surface $-1 -1 $-1 1.400000000000001021 0 -0.2750000000000001332 -1.65984407912814888e-16 0 -1 0.3937007874015747699 0 -6.534819209165939976e-17 reverse_v I I I I #
DXID-attrib $-1 -1 $-1 $-1 $60 @10 ASM ENTITY @1 6 #
face $130 -1 $-1 $131 $103 $5 $-1 $132 forward single #
plane-surface $-1 -1 $-1 1.400000000000001465 0 0.2749999999999984124 1.173821600799596828e-15 0 1 0.3937007874015747699 0 -4.621344885037782274e-16 forward_v I I I I #
coedge $133 -1 $-1 $134 $135 $136 $137 reversed $61 $-1 #
coedge $138 -1 $-1 $139 $140 $141 $142 reversed $63 $-1 #
coedge $-1 -1 $-1 $65 $64 $143 $144 reversed $29 $-1 #
coedge $-1 -1 $-1 $99 $145 $64 $94 forward $146 $-1 #
edge $-1 -1 $-1 $147 -1.042000000000000259 $97 -0.07383028435497496211 $93 $148 forward @7 unknown #
ATTRIB_CUSTOM-attrib $-1 -1 $-1 $-1 $65 @17 sketch_attrib_def 1 1 2 138 0 1 1 1 0 #
edge $-1 -1 $-1 $74 0.07383028435497496211 $149 1.042000000000000259 $70 $150 forward @7 unknown #
vertex $-1 -1 $-1 $100 $151 #
straight-curve $-1 -1 $-1 1.024999999999999689 0 0.4290670410846350591 0 0.3937007874015747699 0 F -0.196851000000000026 F 1.784350999999999798 #
coedge $-1 -1 $-1 $152 $93 $67 $100 forward $146 $-1 #
edge $-1 -1 $-1 $97 -0.8434025001649190223 $104 0.8434025001649417819 $99 $153 forward @7 unknown #
coedge $154 -1 $-1 $155 $68 $71 $110 forward $103 $-1 #
coedge $-1 -1 $-1 $68 $155 $152 $156 reversed $103 $-1 #
loop $-1 -1 $-1 $-1 $68 $88 #
vertex $-1 -1 $-1 $156 $157 #
straight-curve $-1 -1 $-1 1.052893716021988446 0 0.4042350776587584349 0 -0.3937007874015747699 0 F -1.784350999999999798 F 0.196851000000000026 #
ATTRIB_CUSTOM-attrib $-1 -1 $-1 $-1 $70 @17 sketch_attrib_def 1 1 2 138 0 1 1 1 0 #
coedge $158 -1 $-1 $159 $70 $160 $161 reversed $72 $-1 #
ATTRIB_CUSTOM-attrib $-1 -1 $-1 $-1 $71 @17 sketch_attrib_def 1 1 2 136 0 0 1 1 0 #
coedge $162 -1 $-1 $71 $136 $163 $164 forward $72 $-1 #
edge $-1 -1 $-1 $73 0.0693392764607342893 $165 1.014197008784678333 $71 $166 forward @7 unknown #
loop $-1 -1 $-1 $-1 $167 $112 #
face $168 -1 $-1 $-1 $72 $5 $-1 $169 reversed single #
point $-1 -1 $-1 1.052893716021988446 0 0.4042350776587584349 #
point $-1 -1 $-1 1.024999999999999911 0 0.4290670410846350591 #
loop $-1 -1 $-1 $-1 $163 $60 #
point $-1 -1 $-1 1.520000000000001572 0.3125000000000040523 0.2749999999999984679 #
coedge $170 -1 $-1 $171 $172 $173 $174 forward $80 $-1 #
DXID-attrib $-1 -1 $-1 $-1 $81 @10 ASM ENTITY @2 12 #
face $175 -1 $-1 $57 $176 $5 $-1 $177 forward single #
plane-surface $-1 -1 $-1 1.775000000000001243 0 -0.02500000000000021649 -2.534166882638252101e-16 0 1 -0.3937007874015747699 0 -9.977034971016739129e-17 reverse_v I I I I #
ATTRIB_CUSTOM-attrib $-1 -1 $-1 $-1 $83 @17 sketch_attrib_def 1 1 2 116 0 1 1 1 0 #
coedge $-1 -1 $-1 $178 $83 $179 $180 forward $56 $-1 #
coedge $-1 -1 $-1 $83 $178 $181 $182 reversed $56 $-1 #
coedge $183 -1 $-1 $184 $185 $83 $125 reversed $72 $-1 #
edge $-1 -1 $-1 $186 0 $187 0.9525000000000005684 $83 $188 forward @7 unknown #
DXID-attrib $-1 -1 $-1 $-1 $85 @10 ASM ENTITY @2 15 #
face $189 -1 $-1 $190 $191 $5 $-1 $129 reversed single #
loop $-1 -1 $-1 $192 $193 $85 #
cone-surface $-1 -1 $-1 -1.600000000000001199 0.3125000000000040523 -0.2749999999999993006 2.497689594207326371e-16 0 1 -0.08000000000000027922 0 1.998151675365867704e-17 1 I I 0 1 0.08000000000000027922 forward I I I I #
DXID-attrib $-1 -1 $-1 $-1 $88 @10 ASM ENTITY @1 7 #
face $194 -1 $-1 $195 $196 $5 $-1 $197 forward single #
cone-surface $-1 -1 $-1 1.100000000000000533 0 -7.183113881399226623e-16 0 1 0 -0.07500000000000058009 0 0.3999999999999999667 1 I I 0 1 0.4069705149024928081 forward I I I I #
ATTRIB_CUSTOM-attrib $-1 -1 $-1 $-1 $90 @17 sketch_attrib_def 1 1 2 114 0 1 1 1 0 #
coedge $-1 -1 $-1 $198 $90 $140 $199 forward $61 $-1 #
coedge $-1 -1 $-1 $90 $198 $200 $201 reversed $61 $-1 #
coedge $202 -1 $-1 $109 $141 $90 $137 forward $72 $-1 #
edge $-1 -1 $-1 $203 0 $204 0.6350000000000000089 $136 $205 forward @7 unknown #
ATTRIB_CUSTOM-attrib $-1 -1 $-1 $-1 $91 @17 sketch_attrib_def 1 1 2 112 0 1 1 1 0 #
coedge $-1 -1 $-1 $206 $91 $207 $208 forward $63 $-1 #
coedge $-1 -1 $-1 $91 $206 $134 $199 reversed $63 $-1 #
coedge $209 -1 $-1 $136 $210 $91 $142 forward $72 $-1 #
edge $-1 -1 $-1 $211 0 $203 1.082682977437298355 $141 $212 forward @7 unknown #
coedge $-1 -1 $-1 $213 $160 $92 $144 forward $214 $-1 #
edge $-1 -1 $-1 $149 0 $147 1.587499999999999911 $143 $215 forward @7 unknown #
coedge $-1 -1 $-1 $93 $216 $213 $217 reversed $146 $-1 #
loop $-1 -1 $-1 $-1 $145 $218 #
vertex $-1 -1 $-1 $94 $219 #
straight-curve $-1 -1 $-1 1.024999999999999911 0.624999999999999889 0.399999999999999245 -3.244665581143981564e-16 0 -0.3937007874015747699 I I #
vertex $-1 -1 $-1 $161 $220 #
straight-curve $-1 -1 $-1 1.024999999999999911 0 0.399999999999999245 3.244665581143981564e-16 0 0.3937007874015747699 F 0 F 1.042000000000000259 #
point $-1 -1 $-1 1.024999999999999911 0.624999999999999889 0.4290670410846350591 #
coedge $-1 -1 $-1 $221 $99 $102 $156 forward $146 $-1 #
ellipse-curve $-1 -1 $-1 1.049999999999999822 0.624999999999999889 0.4290670410846350591 -0 -1 -0 -0.01662313296960440945 0 -0.01867274618996496091 1 I I #
ATTRIB_CUSTOM-attrib $-1 -1 $-1 $-1 $101 @17 sketch_attrib_def 1 1 2 136 0 0 1 1 0 #
coedge $-1 -1 $-1 $102 $101 $222 $223 forward $103 $-1 #
edge $-1 -1 $-1 $104 0.0693392764607342893 $224 1.014197008784678333 $152 $225 forward @7 unknown #
point $-1 -1 $-1 1.052893716021988446 0.624999999999999889 0.4042350776587584349 #
ATTRIB_CUSTOM-attrib $-1 -1 $-1 $-1 $107 @17 sketch_attrib_def 1 1 2 120 0 1 2 2 0 #
coedge $226 -1 $-1 $227 $107 $228 $229 reversed $72 $-1 #
coedge $230 -1 $-1 $143 $231 $107 $161 forward $214 $-1 #
edge $-1 -1 $-1 $232 0.9525000000000014566 $149 6.159499999999997755 $160 $233 forward @7 unknown #
ATTRIB_CUSTOM-attrib $-1 -1 $-1 $-1 $109 @17 sketch_attrib_def 1 1 2 116 0 1 1 1 0 #
coedge $234 -1 $-1 $200 $222 $109 $164 reversed $115 $-1 #
edge $-1 -1 $-1 $204 0 $165 0.9525000000000005684 $109 $235 forward @7 unknown #
vertex $-1 -1 $-1 $110 $236 #
ellipse-curve $-1 -1 $-1 1.100000000000000533 0 -7.183113881399226623e-16 0 1 0 -0.07500000000000058009 0 0.3999999999999999667 1 F 0 F 1.014197008784678333 #
coedge $237 -1 $-1 $167 $167 $238 $239 reversed $111 $-1 #
DXID-attrib $-1 -1 $240 $-1 $112 @10 ASM ENTITY @2 34 #
plane-surface $-1 -1 $-1 -0.8875000000000006217 0 -0.4051181102362205189 0 1 0 0.3937007874015747699 0 0 forward_v I I I I #
ATTRIB_CUSTOM-attrib $-1 -1 $-1 $-1 $117 @17 sketch_attrib_def 1 1 2 112 0 1 1 1 0 #
coedge $-1 -1 $-1 $241 $117 $242 $243 forward $80 $-1 #
coedge $-1 -1 $-1 $117 $241 $244 $245 reversed $80 $-1 #
coedge $246 -1 $-1 $210 $184 $117 $174 reversed $72 $-1 #
edge $-1 -1 $-1 $247 0 $248 1.082682977437298355 $173 $249 forward @7 unknown #
DXID-attrib $-1 -1 $-1 $-1 $119 @10 ASM ENTITY @2 13 #
loop $-1 -1 $-1 $-1 $250 $119 #
plane-surface $-1 -1 $-1 1.775000000000001465 0 -0.2750000000000001887 1 0 8.830452216542624147e-16 -3.476555990764812447e-16 0 0.3937007874015747699 reverse_v I I I I #
coedge $-1 -1 $-1 $123 $122 $251 $252 forward $56 $-1 #
coedge $-1 -1 $-1 $253 $254 $122 $180 reversed $255 $-1 #
edge $-1 -1 $-1 $187 0 $256 1.587499999999999911 $122 $257 forward @7 unknown #
coedge $-1 -1 $-1 $258 $250 $123 $182 forward $176 $-1 #
edge $-1 -1 $-1 $186 0 $259 1.587499999999999911 $123 $260 forward @7 unknown #
ATTRIB_CUSTOM-attrib $-1 -1 $-1 $-1 $124 @17 sketch_attrib_def 1 1 2 116 0 1 1 1 0 #
coedge $261 -1 $-1 $173 $124 $250 $262 reversed $72 $-1 #
coedge $263 -1 $-1 $124 $264 $253 $265 forward $72 $-1 #
vertex $-1 -1 $-1 $125 $266 #
vertex $-1 -1 $-1 $125 $267 #
straight-curve $-1 -1 $-1 1.775000000000001465 0 -0.2750000000000001887 -0.3937007874015747699 0 6.534819209165939976e-17 F 0 F 0.9525000000000010125 #
DXID-attrib $-1 -1 $-1 $-1 $127 @10 ASM ENTITY @2 16 #
face $268 -1 $-1 $269 $270 $5 $-1 $271 forward single #
loop $-1 -1 $-1 $272 $273 $127 #
loop $-1 -1 $-1 $-1 $274 $85 #
coedge $275 -1 $-1 $193 $193 $276 $277 reversed $128 $-1 #
DXID-attrib $-1 -1 $-1 $-1 $131 @10 ASM ENTITY @1 8 #
face $278 -1 $-1 $279 $255 $5 $-1 $280 forward single #
loop $-1 -1 $-1 $-1 $281 $131 #
cone-surface $-1 -1 $-1 1.049999999999999378 0 -0.4290670410846362803 -0 -1 -0 -0.01662313296960423945 0 0.01867274618996510663 1 I I -0 -1 0.02499999999999999792 reversed I I I I #
coedge $-1 -1 $-1 $135 $134 $282 $283 reversed $61 $-1 #
edge $-1 -1 $-1 $203 0 $284 1.587499999999999911 $134 $285 forward @7 unknown #
coedge $-1 -1 $-1 $286 $163 $135 $201 forward $115 $-1 #
edge $-1 -1 $-1 $204 0 $287 1.587499999999999911 $200 $288 forward @7 unknown #
ATTRIB_CUSTOM-attrib $-1 -1 $-1 $-1 $136 @17 sketch_attrib_def 1 1 2 114 0 1 1 1 0 #
vertex $-1 -1 $-1 $137 $289 #
vertex $-1 -1 $-1 $164 $290 #
straight-curve $-1 -1 $-1 1.775000000000001243 0 0.02499999999999802033 8.751382796719188349e-16 0 0.3937007874015747699 F 0 F 0.6350000000000000089 #
coedge $-1 -1 $-1 $140 $139 $291 $292 reversed $63 $-1 #
coedge $-1 -1 $-1 $293 $294 $139 $208 reversed $295 $-1 #
edge $-1 -1 $-1 $211 0 $296 1.587499999999999911 $139 $297 forward @7 unknown #
ATTRIB_CUSTOM-attrib $-1 -1 $-1 $-1 $141 @17 sketch_attrib_def 1 1 2 112 0 1 1 1 0 #
coedge $298 -1 $-1 $141 $173 $293 $299 reversed $72 $-1 #
vertex $-1 -1 $-1 $142 $300 #
straight-curve $-1 -1 $-1 1.348746859276655385 0 0.02499999999999870381 0.3937007874015747699 0 -6.272530303056049445e-16 F 0 F 1.082682977437298355 #
coedge $-1 -1 $-1 $231 $143 $145 $217 forward $214 $-1 #
loop $-1 -1 $-1 $-1 $160 $301 #
straight-curve $-1 -1 $-1 1.025000000000000133 0 0.8102362204724402606 0 0.3937007874015747699 0 I I #
coedge $-1 -1 $-1 $145 $302 $303 $304 reversed $146 $-1 #
edge $-1 -1 $-1 $147 -6.159499999999997755 $305 -0.9525000000000014566 $213 $306 forward @7 unknown #
face $307 -1 $-1 $112 $308 $5 $-1 $309 forward single #
point $-1 -1 $-1 1.025000000000000133 0.624999999999999889 0.8102362204724402606 #
point $-1 -1 $-1 1.025000000000000133 0 0.8102362204724402606 #
coedge $-1 -1 $-1 $282 $152 $286 $310 forward $146 $-1 #
coedge $-1 -1 $-1 $163 $286 $155 $223 reversed $115 $-1 #
edge $-1 -1 $-1 $165 0 $224 1.587499999999999911 $155 $311 forward @7 unknown #
vertex $-1 -1 $-1 $310 $312 #
ellipse-curve $-1 -1 $-1 1.100000000000000533 0.624999999999999889 -7.183113881399226623e-16 0 1 0 -0.07500000000000058009 0 0.3999999999999999667 1 I I #
ATTRIB_CUSTOM-attrib $-1 -1 $-1 $-1 $159 @17 sketch_attrib_def 1 1 2 138 0 1 1 1 0 #
coedge $-1 -1 $-1 $313 $159 $314 $315 reversed $72 $-1 #
coedge $316 -1 $-1 $317 $318 $159 $229 forward $319 $-1 #
edge $-1 -1 $-1 $320 0.07383028435497496211 $232 1.042000000000000259 $228 $321 forward @7 unknown #
ATTRIB_CUSTOM-attrib $-1 -1 $-1 $-1 $160 @17 sketch_attrib_def 1 1 2 120 0 1 2 2 0 #
coedge $-1 -1 $-1 $160 $213 $317 $322 reversed $214 $-1 #
vertex $-1 -1 $-1 $161 $323 #
straight-curve $-1 -1 $-1 -1.399999999999999911 0 0.8102362204724408157 0.3937007874015747699 0 1.214504356333587226e-16 F 0.9525000000000014566 F 6.159499999999997755 #
ATTRIB_CUSTOM-attrib $-1 -1 $-1 $-1 $163 @17 sketch_attrib_def 1 1 2 116 0 1 1 1 0 #
straight-curve $-1 -1 $-1 1.775000000000001465 0 0.2749999999999979683 -0.3937007874015747699 0 4.621344885037782274e-16 F 0 F 0.9525000000000010125 #
point $-1 -1 $-1 1.400000000000001465 0 0.2749999999999984124 #
ATTRIB_CUSTOM-attrib $-1 -1 $-1 $-1 $167 @17 sketch_attrib_def 1 1 2 102 0 1 2 2 0 #
coedge $324 -1 $-1 $238 $238 $167 $239 forward $325 $-1 #
edge $-1 -1 $-1 $326 -1.570796326794896558 $326 4.712388980384689674 $238 $327 forward @7 unknown #
ATTRIB_CUSTOM-attrib $-1 -1 $-1 $168 $112 @22 FPM_tracked_attrib_def 1 1204 #
coedge $-1 -1 $-1 $172 $171 $328 $329 forward $80 $-1 #
coedge $-1 -1 $-1 $250 $258 $171 $243 reversed $176 $-1 #
edge $-1 -1 $-1 $248 0 $330 1.587499999999999911 $242 $331 forward @7 unknown #
coedge $-1 -1 $-1 $294 $293 $172 $245 forward $295 $-1 #
edge $-1 -1 $-1 $247 0 $332 1.587499999999999911 $172 $333 forward @7 unknown #
ATTRIB_CUSTOM-attrib $-1 -1 $-1 $-1 $173 @17 sketch_attrib_def 1 1 2 112 0 1 1 1 0 #
vertex $-1 -1 $-1 $299 $334 #
vertex $-1 -1 $-1 $174 $335 #
straight-curve $-1 -1 $-1 1.348746859276655385 0 -0.02500000000000032058 0.3937007874015747699 0 9.977034971016739129e-17 F 0 F 1.082682977437298355 #
coedge $336 -1 $-1 $181 $242 $184 $262 forward $176 $-1 #
coedge $-1 -1 $-1 $337 $338 $178 $252 reversed $146 $-1 #
edge $-1 -1 $-1 $256 -0.9525000000000005684 $259 -0 $178 $339 forward @7 unknown #
coedge $340 -1 $-1 $341 $179 $185 $265 reversed $255 $-1 #
coedge $-1 -1 $-1 $179 $341 $337 $342 forward $255 $-1 #
loop $-1 -1 $-1 $-1 $341 $195 #
vertex $-1 -1 $-1 $252 $343 #
straight-curve $-1 -1 $-1 1.400000000000001021 0 -0.2750000000000001332 0 0.3937007874015747699 0 I I #
coedge $-1 -1 $-1 $242 $181 $338 $344 forward $176 $-1 #
vertex $-1 -1 $-1 $182 $345 #
straight-curve $-1 -1 $-1 1.775000000000001465 0 -0.2750000000000001887 0 0.3937007874015747699 0 I I #
ATTRIB_CUSTOM-attrib $-1 -1 $-1 $-1 $184 @17 sketch_attrib_def 1 1 2 114 0 1 1 1 0 #
edge $-1 -1 $-1 $248 0 $186 0.6350000000000000089 $184 $346 forward @7 unknown #
ATTRIB_CUSTOM-attrib $-1 -1 $-1 $-1 $185 @17 sketch_attrib_def 1 1 2 136 0 0 1 1 0 #
coedge $-1 -1 $-1 $185 $347 $281 $348 forward $72 $-1 #
edge $-1 -1 $-1 $349 0.06933927646073413664 $187 1.014197008784678333 $185 $350 forward @7 unknown #
point $-1 -1 $-1 1.775000000000001465 0 -0.2750000000000001887 #
point $-1 -1 $-1 1.400000000000001021 0 -0.2750000000000001332 #
DXID-attrib $-1 -1 $-1 $-1 $190 @10 ASM ENTITY @2 17 #
face $351 -1 $-1 $301 $319 $5 $-1 $352 forward single #
loop $-1 -1 $-1 $-1 $314 $190 #
cone-surface $-1 -1 $-1 -1.049999999999999378 0 0.4290670410846356142 0 1 0 0.01662313296960439557 0 -0.01867274618996496785 1 I I 0 -1 0.02499999999999999792 forward I I I I #
loop $-1 -1 $-1 $-1 $353 $127 #
coedge $-1 -1 $-1 $273 $273 $354 $355 reversed $191 $-1 #
coedge $-1 -1 $-1 $274 $274 $356 $357 reversed $192 $-1 #
ATTRIB_CUSTOM-attrib $-1 -1 $-1 $-1 $193 @17 sketch_attrib_def 1 1 2 133 0 0 1 1 0 #
coedge $-1 -1 $-1 $276 $276 $193 $277 forward $358 $-1 #
edge $-1 -1 $-1 $359 -3.141592653589793116 $359 3.141592653589793116 $276 $360 forward @7 unknown #
DXID-attrib $-1 -1 $-1 $-1 $195 @10 ASM ENTITY @1 9 #
face $361 -1 $-1 $362 $363 $5 $-1 $364 forward single #
cone-surface $-1 -1 $-1 1.100000000000000533 0 -5.672270462120243234e-16 -0 -1 -0 -0.07500000000000110745 0 -0.3999999999999999667 1 I I -0 1 0.4069705149024928081 reversed I I I I #
coedge $-1 -1 $-1 $365 $366 $264 $348 reversed $196 $-1 #
coedge $-1 -1 $-1 $291 $221 $198 $283 forward $146 $-1 #
edge $-1 -1 $-1 $287 -0.6350000000000000089 $284 -0 $282 $367 forward @7 unknown #
vertex $-1 -1 $-1 $292 $368 #
straight-curve $-1 -1 $-1 1.775000000000001243 0 0.02499999999999802033 0 0.3937007874015747699 0 I I #
coedge $-1 -1 $-1 $222 $200 $221 $310 reversed $115 $-1 #
vertex $-1 -1 $-1 $283 $369 #
straight-curve $-1 -1 $-1 1.775000000000001465 0 0.2749999999999979683 0 0.3937007874015747699 0 I I #
point $-1 -1 $-1 1.775000000000001243 0 0.02499999999999802033 #
point $-1 -1 $-1 1.775000000000001465 0 0.2749999999999979683 #
coedge $-1 -1 $-1 $370 $282 $206 $292 forward $146 $-1 #
edge $-1 -1 $-1 $284 -1.082682977437298355 $296 -0 $291 $371 forward @7 unknown #
coedge $372 -1 $-1 $244 $207 $210 $299 forward $295 $-1 #
coedge $-1 -1 $-1 $207 $244 $370 $373 forward $295 $-1 #
loop $-1 -1 $-1 $-1 $293 $362 #
vertex $-1 -1 $-1 $373 $374 #
straight-curve $-1 -1 $-1 1.348746859276655385 0 0.02499999999999870381 0 0.3937007874015747699 0 I I #
ATTRIB_CUSTOM-attrib $-1 -1 $-1 $-1 $210 @17 sketch_attrib_def 1 1 2 104 0 1 1 2 0 #
edge $-1 -1 $-1 $211 -3.041425232428234704 $247 3.041425232428234704 $210 $375 forward @7 unknown #
point $-1 -1 $-1 1.348746859276655385 0 0.02499999999999870381 #
face $376 -1 $-1 $377 $214 $5 $-1 $378 forward single #
coedge $-1 -1 $-1 $216 $379 $380 $381 reversed $146 $-1 #
coedge $-1 -1 $-1 $318 $317 $216 $304 forward $319 $-1 #
edge $-1 -1 $-1 $305 -1.042000000000000259 $382 -0.07383028435497496211 $303 $383 forward @7 unknown #
vertex $-1 -1 $-1 $322 $384 #
straight-curve $-1 -1 $-1 -1.399999999999999911 0.624999999999999889 0.8102362204724408157 -0.3937007874015747699 0 -1.214504356333587226e-16 I I #
DXID-attrib $-1 -1 $385 $-1 $218 @10 ASM ENTITY @2 33 #
loop $-1 -1 $-1 $146 $386 $218 #
plane-surface $-1 -1 $-1 -0.8875000000000006217 0.624999999999999889 -0.4051181102362205189 0 1 0 0.3937007874015747699 0 0 forward_v I I I I #
edge $-1 -1 $-1 $224 -0.9525000000000005684 $287 -0 $221 $387 forward @7 unknown #
straight-curve $-1 -1 $-1 1.400000000000001465 0 0.2749999999999984124 0 0.3937007874015747699 0 I I #
point $-1 -1 $-1 1.400000000000001465 0.624999999999999889 0.2749999999999984124 #
coedge $388 -1 $-1 $389 $227 $390 $391 forward $72 $-1 #
coedge $-1 -1 $-1 $392 $393 $227 $315 forward $270 $-1 #
edge $-1 -1 $-1 $394 -0.8434025001649417819 $320 0.8434025001649190223 $314 $395 forward @7 unknown #
ATTRIB_CUSTOM-attrib $-1 -1 $-1 $-1 $228 @17 sketch_attrib_def 1 1 2 138 0 1 1 1 0 #
coedge $-1 -1 $-1 $303 $228 $231 $322 forward $319 $-1 #
coedge $-1 -1 $-1 $228 $303 $392 $396 reversed $319 $-1 #
loop $-1 -1 $-1 $-1 $318 $269 #
vertex $-1 -1 $-1 $229 $397 #
straight-curve $-1 -1 $-1 -1.024999999999999467 0 0.3999999999999998002 -1.214504356333587226e-16 0 0.3937007874015747699 F 0 F 1.042000000000000259 #
edge $-1 -1 $-1 $232 0 $305 1.587499999999999911 $231 $398 forward @7 unknown #
point $-1 -1 $-1 -1.024999999999999467 0 0.8102362204724408157 #
ATTRIB_CUSTOM-attrib $-1 -1 $-1 $-1 $238 @17 sketch_attrib_def 1 1 2 102 0 1 2 2 0 #
loop $-1 -1 $-1 $399 $238 $400 #
vertex $-1 -1 $-1 $239 $401 #
ellipse-curve $-1 -1 $-1 0 0 1.882481752317060102e-16 -0 -1 -0 0.6102362204724408601 0 1.882481752317060102e-16 1 I I #
coedge $-1 -1 $-1 $338 $370 $241 $329 reversed $146 $-1 #
edge $-1 -1 $-1 $330 -1.082682977437298355 $332 -0 $328 $402 forward @7 unknown #
vertex $-1 -1 $-1 $243 $403 #
straight-curve $-1 -1 $-1 1.775000000000001243 0 -0.02500000000000021649 0 0.3937007874015747699 0 I I #
vertex $-1 -1 $-1 $329 $404 #
straight-curve $-1 -1 $-1 1.348746859276655385 0 -0.02500000000000032058 0 0.3937007874015747699 0 I I #
point $-1 -1 $-1 1.348746859276655385 0 -0.02500000000000032058 #
point $-1 -1 $-1 1.775000000000001243 0 -0.02500000000000021649 #
ATTRIB_CUSTOM-attrib $-1 -1 $-1 $-1 $250 @17 sketch_attrib_def 1 1 2 114 0 1 1 1 0 #
coedge $-1 -1 $-1 $405 $251 $254 $342 reversed $146 $-1 #
coedge $-1 -1 $-1 $251 $328 $258 $344 reversed $146 $-1 #
straight-curve $-1 -1 $-1 1.775000000000001465 0.624999999999999889 -0.2750000000000001887 0.3937007874015747699 0 -6.534819209165939976e-17 I I #
ATTRIB_CUSTOM-attrib $-1 -1 $-1 $-1 $253 @17 sketch_attrib_def 1 1 2 136 0 0 1 1 0 #
coedge $-1 -1 $-1 $254 $253 $366 $406 forward $255 $-1 #
edge $-1 -1 $-1 $407 0.06933927646073413664 $256 1.014197008784678333 $337 $408 forward @7 unknown #
point $-1 -1 $-1 1.400000000000001021 0.624999999999999889 -0.2750000000000001332 #
edge $-1 -1 $-1 $259 -0.6350000000000000089 $330 -0 $258 $409 forward @7 unknown #
point $-1 -1 $-1 1.775000000000001465 0.624999999999999889 -0.2750000000000001887 #
straight-curve $-1 -1 $-1 1.775000000000001243 0 -0.02500000000000021649 3.476555990764812447e-16 0 -0.3937007874015747699 F 0 F 0.6350000000000000089 #
coedge $410 -1 $-1 $264 $411 $412 $413 reversed $72 $-1 #
edge $-1 -1 $-1 $414 -0.8434025001649267939 $349 0.8434025001649336772 $264 $415 forward @7 unknown #
vertex $-1 -1 $-1 $348 $416 #
ellipse-curve $-1 -1 $-1 1.100000000000000533 0 -5.672270462120243234e-16 -0 -1 -0 -0.07500000000000110745 0 -0.3999999999999999667 1 F 0 F 1.014197008784678333 #
DXID-attrib $-1 -1 $-1 $-1 $269 @10 ASM ENTITY @2 18 #
plane-surface $-1 -1 $-1 -1.024999999999999467 0 0.8102362204724408157 -1 0 -3.084841065087311772e-16 1.214504356333587226e-16 0 -0.3937007874015747699 reverse_v I I I I #
coedge $-1 -1 $-1 $353 $353 $417 $418 reversed $272 $-1 #
coedge $-1 -1 $-1 $354 $354 $273 $355 forward $419 $-1 #
edge $-1 -1 $-1 $420 -3.141592653589793116 $420 3.141592653589793116 $354 $421 forward @7 unknown #
coedge $-1 -1 $-1 $356 $356 $274 $357 forward $422 $-1 #
edge $-1 -1 $-1 $423 -3.141592653589793116 $423 3.141592653589793116 $356 $424 forward @7 unknown #
loop $-1 -1 $-1 $425 $276 $426 #
vertex $-1 -1 $-1 $277 $427 #
ellipse-curve $-1 -1 $-1 -1.600000000000001199 0.3125000000000040523 -0.2749999999999993561 3.496765431890253074e-16 0 1 -0.08000000000000027922 0 1.998151675365867704e-17 1 I I #
DXID-attrib $-1 -1 $-1 $-1 $279 @10 ASM ENTITY @2 10 #
face $428 -1 $-1 $81 $295 $5 $-1 $429 forward single #
loop $-1 -1 $-1 $-1 $430 $279 #
plane-surface $-1 -1 $-1 1.024999999999999245 0 -0.8102362204724414818 1 0 -5.156609511018401954e-16 2.030161224810394338e-16 0 0.3937007874015747699 reverse_v I I I I #
coedge $-1 -1 $-1 $431 $281 $430 $432 reversed $196 $-1 #
coedge $-1 -1 $-1 $281 $431 $341 $406 reversed $196 $-1 #
straight-curve $-1 -1 $-1 1.775000000000001243 0.624999999999999889 0.02499999999999802033 -8.751382796719188349e-16 0 -0.3937007874015747699 I I #
point $-1 -1 $-1 1.775000000000001243 0.624999999999999889 0.02499999999999802033 #
point $-1 -1 $-1 1.775000000000001465 0.624999999999999889 0.2749999999999979683 #
coedge $-1 -1 $-1 $328 $291 $294 $373 reversed $146 $-1 #
straight-curve $-1 -1 $-1 1.348746859276655385 0.624999999999999889 0.02499999999999870381 -0.3937007874015747699 0 6.272530303056049445e-16 I I #
ATTRIB_CUSTOM-attrib $-1 -1 $-1 $-1 $293 @17 sketch_attrib_def 1 1 2 104 0 1 1 2 0 #
edge $-1 -1 $-1 $332 -3.041425232428234704 $296 3.041425232428234704 $370 $433 forward @7 unknown #
point $-1 -1 $-1 1.348746859276655385 0.624999999999999889 0.024999999999998683 #
ellipse-curve $-1 -1 $-1 1.100000000000000533 0 -5.672270462120243234e-16 -0 -1 -0 -0.249999999999999889 0 1.289152377754599995e-16 1 F -3.041425232428234704 F 3.041425232428234704 #
DXID-attrib $-1 -1 $-1 $-1 $301 @10 ASM ENTITY @2 19 #
face $434 -1 $-1 $435 $419 $5 $-1 $436 forward single #
plane-surface $-1 -1 $-1 -2.499449965334522802e-16 0 0.8102362204724411487 -3.084841065087311772e-16 0 1 -0.3937007874015747699 0 -1.214504356333587226e-16 reverse_v I I I I #
coedge $-1 -1 $-1 $302 $437 $438 $439 reversed $146 $-1 #
coedge $-1 -1 $-1 $393 $392 $302 $381 forward $270 $-1 #
edge $-1 -1 $-1 $382 -0.8434025001649190223 $440 0.8434025001649417819 $380 $441 forward @7 unknown #
vertex $-1 -1 $-1 $304 $442 #
straight-curve $-1 -1 $-1 -1.024999999999999467 0.624999999999999889 0.3999999999999998002 1.214504356333587226e-16 0 -0.3937007874015747699 I I #
point $-1 -1 $-1 -1.024999999999999467 0.624999999999999889 0.8102362204724408157 #
ATTRIB_CUSTOM-attrib $-1 -1 $-1 $307 $218 @22 FPM_tracked_attrib_def 1 1204 #
coedge $-1 -1 $-1 $386 $386 $443 $444 reversed $308 $-1 #
straight-curve $-1 -1 $-1 1.775000000000001465 0.624999999999999889 0.2749999999999979683 0.3937007874015747699 0 -4.621344885037782274e-16 I I #
ATTRIB_CUSTOM-attrib $-1 -1 $-1 $-1 $313 @17 sketch_attrib_def 1 1 2 136 0 0 1 1 0 #
coedge $445 -1 $-1 $446 $313 $447 $448 reversed $72 $-1 #
coedge $449 -1 $-1 $450 $451 $313 $391 reversed $452 $-1 #
edge $-1 -1 $-1 $394 0.0693392764607342893 $453 1.014197008784678333 $390 $454 forward @7 unknown #
coedge $-1 -1 $-1 $380 $314 $318 $396 forward $270 $-1 #
coedge $-1 -1 $-1 $314 $380 $450 $455 forward $270 $-1 #
vertex $-1 -1 $-1 $391 $456 #
ellipse-curve $-1 -1 $-1 -1.049999999999999378 0 0.4290670410846356142 -0 -1 -0 0.01662313296960439557 0 -0.01867274618996496785 1 I I #
edge $-1 -1 $-1 $320 0 $382 1.587499999999999911 $318 $457 forward @7 tangent #
point $-1 -1 $-1 -1.024999999999999467 0 0.4290670410846356142 #
straight-curve $-1 -1 $-1 -1.024999999999999467 0 0.8102362204724408157 0 0.3937007874015747699 0 I I #
loop $-1 -1 $-1 $-1 $443 $400 #
face $458 -1 $-1 $459 $325 $5 $-1 $460 forward single #
point $-1 -1 $-1 0 0 -0.6102362204724409711 #
straight-curve $-1 -1 $-1 1.348746859276655385 0.624999999999999889 -0.02500000000000032058 -0.3937007874015747699 0 -9.977034971016739129e-17 I I #
point $-1 -1 $-1 1.775000000000001243 0.624999999999999889 -0.02500000000000021649 #
point $-1 -1 $-1 1.348746859276655385 0.624999999999999889 -0.02500000000000029976 #
coedge $-1 -1 $-1 $461 $337 $431 $462 forward $146 $-1 #
edge $-1 -1 $-1 $349 0 $407 1.587499999999999911 $341 $463 forward @7 tangent #
vertex $-1 -1 $-1 $342 $464 #
ellipse-curve $-1 -1 $-1 1.100000000000000533 0.624999999999999889 -5.672270462120243234e-16 -0 -1 -0 -0.07500000000000110745 0 -0.3999999999999999667 1 I I #
straight-curve $-1 -1 $-1 1.775000000000001243 0.624999999999999889 -0.02500000000000021649 -3.476555990764812447e-16 0 0.3937007874015747699 I I #
ATTRIB_CUSTOM-attrib $-1 -1 $-1 $-1 $347 @17 sketch_attrib_def 1 1 2 138 0 1 1 1 0 #
coedge $465 -1 $-1 $347 $466 $467 $468 reversed $72 $-1 #
coedge $469 -1 $-1 $470 $430 $347 $413 forward $363 $-1 #
edge $-1 -1 $-1 $414 0.07383028435497496211 $471 1.042000000000000259 $347 $472 forward @7 unknown #
vertex $-1 -1 $-1 $348 $473 #
ellipse-curve $-1 -1 $-1 1.049999999999999378 0 -0.4290670410846362803 0 1 0 -0.01662313296960423945 0 0.01867274618996510663 1 I I #
point $-1 -1 $-1 1.052893716021988002 0 -0.4042350776587595451 #
coedge $-1 -1 $-1 $417 $417 $353 $418 forward $474 $-1 #
edge $-1 -1 $-1 $475 -3.141592653589793116 $475 3.141592653589793116 $417 $476 forward @7 unknown #
loop $-1 -1 $-1 $477 $354 $377 #
vertex $-1 -1 $-1 $355 $478 #
ellipse-curve $-1 -1 $-1 -1.600000000000001199 0.3125000000000040523 0.02499999999999890504 -1.077561745874396484e-15 0 1 -0.08000000000000027922 0 1.998151675365867704e-17 1 I I #
loop $-1 -1 $-1 $479 $356 $480 #
vertex $-1 -1 $-1 $357 $481 #
ellipse-curve $-1 -1 $-1 -1.600000000000001199 0.3125000000000040523 -0.02499999999999934219 -7.690776393656654055e-16 0 -1 -0.08000000000000027922 0 1.998151675365867704e-17 1 I I #
loop $-1 -1 $-1 $-1 $482 $426 #
face $483 -1 $-1 $218 $358 $5 $-1 $484 forward single #
point $-1 -1 $-1 -1.520000000000001128 0.3125000000000040523 -0.2749999999999993006 #
DXID-attrib $-1 -1 $-1 $-1 $362 @10 ASM ENTITY @2 11 #
cone-surface $-1 -1 $-1 1.100000000000000533 0 -5.672270462120243234e-16 -0 -1 -0 -0.249999999999999889 0 1.289152377754599995e-16 1 I I -0 -1 0.249999999999999889 reversed I I I I #
coedge $-1 -1 $-1 $412 $485 $365 $432 forward $363 $-1 #
coedge $-1 -1 $-1 $366 $365 $405 $462 reversed $196 $-1 #
edge $-1 -1 $-1 $486 -1.587499999999999911 $414 -0 $365 $487 forward @7 tangent #
ellipse-curve $-1 -1 $-1 1.100000000000000533 0.624999999999999889 -5.672270462120243234e-16 0 1 0 -0.249999999999999889 0 1.289152377754599995e-16 1 I I #
DXID-attrib $-1 -1 $-1 $-1 $377 @10 ASM ENTITY @2 20 #
face $488 -1 $-1 $489 $490 $5 $-1 $491 forward single #
plane-surface $-1 -1 $-1 -1.775000000000000799 0 0.02499999999999893974 1.077561745874396484e-15 0 -1 0.3937007874015747699 0 4.242369078245655107e-16 reverse_v I I I I #
coedge $-1 -1 $-1 $379 $492 $493 $494 reversed $146 $-1 #
coedge $-1 -1 $-1 $451 $450 $379 $439 forward $452 $-1 #
edge $-1 -1 $-1 $440 0.0693392764607342893 $495 1.014197008784678333 $438 $496 forward @7 unknown #
vertex $-1 -1 $-1 $439 $497 #
ellipse-curve $-1 -1 $-1 -1.049999999999999378 0.624999999999999889 0.4290670410846356142 0 1 0 0.01662313296960439557 0 -0.01867274618996496785 1 I I #
point $-1 -1 $-1 -1.024999999999999467 0.624999999999999889 0.4290670410846356142 #
coedge $-1 -1 $-1 $443 $443 $386 $444 forward $399 $-1 #
edge $-1 -1 $-1 $498 -7.85398163397448279 $498 -1.570796326794896558 $443 $499 forward @7 unknown #
ATTRIB_CUSTOM-attrib $-1 -1 $-1 $-1 $389 @17 sketch_attrib_def 1 1 2 116 0 1 1 1 0 #
coedge $500 -1 $-1 $501 $389 $502 $503 reversed $72 $-1 #
coedge $504 -1 $-1 $505 $506 $389 $448 forward $507 $-1 #
edge $-1 -1 $-1 $508 0 $453 0.9525000000000005684 $447 $509 forward @7 unknown #
ATTRIB_CUSTOM-attrib $-1 -1 $-1 $-1 $390 @17 sketch_attrib_def 1 1 2 136 0 0 1 1 0 #
coedge $-1 -1 $-1 $438 $390 $393 $455 reversed $452 $-1 #
coedge $-1 -1 $-1 $390 $438 $505 $510 reversed $452 $-1 #
loop $-1 -1 $-1 $-1 $450 $511 #
vertex $-1 -1 $-1 $391 $512 #
ellipse-curve $-1 -1 $-1 -1.100000000000000089 0 -1.510843419278983143e-16 -0 -1 -0 0.07500000000000078826 0 0.3999999999999999667 1 F 0 F 1.014197008784678333 #
edge $-1 -1 $-1 $440 -1.587499999999999911 $394 -0 $450 $513 forward @7 tangent #
point $-1 -1 $-1 -1.052893716021988002 0 0.4042350776587589345 #
straight-curve $-1 -1 $-1 -1.024999999999999245 0 0.4290670410846356142 0 0.3937007874015747699 0 F -0.196851000000000026 F 1.784350999999999798 #
DXID-attrib $-1 -1 $514 $-1 $400 @10 ASM ENTITY @2 28 #
face $515 -1 $-1 $480 $516 $5 $-1 $517 forward single #
cone-surface $-1 -1 $-1 0 0 0 0 1 0 0.6102362204724408601 0 0 1 I I 0 -1 0.6102362204724408601 forward I I I I #
coedge $-1 -1 $-1 $518 $405 $485 $519 reversed $146 $-1 #
edge $-1 -1 $-1 $407 -0.8434025001649336772 $486 0.8434025001649267939 $405 $520 forward @7 unknown #
straight-curve $-1 -1 $-1 1.052893716021988002 0 -0.4042350776587595451 0 0.3937007874015747699 0 F -0.196851000000000026 F 1.784350999999999798 #
point $-1 -1 $-1 1.052893716021988002 0.624999999999999889 -0.4042350776587595451 #
ATTRIB_CUSTOM-attrib $-1 -1 $-1 $-1 $411 @17 sketch_attrib_def 1 1 2 120 0 1 2 2 0 #
coedge $521 -1 $-1 $411 $522 $523 $524 forward $72 $-1 #
coedge $525 -1 $-1 $526 $527 $411 $468 forward $528 $-1 #
edge $-1 -1 $-1 $471 0.9525000000000014566 $529 6.159499999999997755 $411 $530 forward @7 unknown #
ATTRIB_CUSTOM-attrib $-1 -1 $-1 $-1 $412 @17 sketch_attrib_def 1 1 2 138 0 1 1 1 0 #
coedge $-1 -1 $-1 $485 $412 $527 $531 forward $363 $-1 #
vertex $-1 -1 $-1 $413 $532 #
straight-curve $-1 -1 $-1 1.024999999999999467 0 -0.4000000000000005218 -2.030161224810394338e-16 0 -0.3937007874015747699 F 0 F 1.042000000000000259 #
point $-1 -1 $-1 1.024999999999999467 0 -0.4290670410846362803 #
loop $-1 -1 $-1 $507 $417 $489 #
vertex $-1 -1 $-1 $418 $533 #
ellipse-curve $-1 -1 $-1 -1.600000000000001199 0.3125000000000040523 0.2749999999999993006 6.581606496977565339e-16 0 -1 -0.08000000000000027922 0 1.998151675365867704e-17 1 I I #
loop $-1 -1 $-1 $-1 $534 $377 #
point $-1 -1 $-1 -1.520000000000000906 0.3125000000000040523 0.02499999999999888423 #
loop $-1 -1 $-1 $-1 $535 $480 #
face $536 -1 $-1 $537 $422 $5 $-1 $538 forward single #
point $-1 -1 $-1 -1.520000000000000906 0.3125000000000040523 -0.02499999999999936301 #
coedge $539 -1 $-1 $540 $541 $542 $543 reversed $425 $-1 #
DXID-attrib $-1 -1 $544 $-1 $426 @10 ASM ENTITY @2 32 #
plane-surface $-1 -1 $-1 -1.400000000000001021 0 -0.2749999999999994116 -3.496765431890253074e-16 0 -1 -0.3937007874015747699 0 1.376679303893800217e-16 forward_v I I I I #
coedge $-1 -1 $-1 $430 $470 $461 $519 forward $363 $-1 #
vertex $-1 -1 $-1 $519 $545 #
straight-curve $-1 -1 $-1 1.024999999999999467 0 -0.4290670410846362803 0 -0.3937007874015747699 0 F -1.784350999999999798 F 0.196851000000000026 #
DXID-attrib $-1 -1 $-1 $-1 $435 @10 ASM ENTITY @2 21 #
face $546 -1 $-1 $511 $474 $5 $-1 $547 forward single #
loop $-1 -1 $-1 $-1 $502 $435 #
plane-surface $-1 -1 $-1 -1.775000000000001243 0 0.274999999999998912 -1 0 -1.707190279264833689e-15 6.721221571908793025e-16 0 -0.3937007874015747699 reverse_v I I I I #
coedge $-1 -1 $-1 $437 $548 $549 $550 reversed $146 $-1 #
coedge $-1 -1 $-1 $506 $505 $437 $494 forward $507 $-1 #
edge $-1 -1 $-1 $495 -0.9525000000000005684 $551 -0 $493 $552 forward @7 unknown #
vertex $-1 -1 $-1 $510 $553 #
ellipse-curve $-1 -1 $-1 -1.100000000000000089 0.624999999999999889 -1.510843419278983143e-16 -0 -1 -0 0.07500000000000078826 0 0.3999999999999999667 1 I I #
point $-1 -1 $-1 -1.052893716021988002 0.624999999999999889 0.4042350776587589345 #
vertex $-1 -1 $-1 $444 $554 #
ellipse-curve $-1 -1 $-1 0 0.624999999999999889 1.882481752317060102e-16 0 1 0 0.6102362204724408601 0 1.882481752317060102e-16 1 I I #
ATTRIB_CUSTOM-attrib $-1 -1 $-1 $-1 $446 @17 sketch_attrib_def 1 1 2 114 0 1 1 1 0 #
coedge $555 -1 $-1 $556 $446 $534 $557 reversed $72 $-1 #
coedge $558 -1 $-1 $559 $560 $446 $503 forward $490 $-1 #
edge $-1 -1 $-1 $561 0 $508 0.6350000000000000089 $502 $562 forward @7 unknown #
ATTRIB_CUSTOM-attrib $-1 -1 $-1 $-1 $447 @17 sketch_attrib_def 1 1 2 116 0 1 1 1 0 #
coedge $-1 -1 $-1 $493 $447 $451 $510 forward $507 $-1 #
coedge $-1 -1 $-1 $447 $493 $559 $563 reversed $507 $-1 #
loop $-1 -1 $-1 $-1 $447 $489 #
vertex $-1 -1 $-1 $448 $564 #
straight-curve $-1 -1 $-1 -1.775000000000001243 0 0.274999999999998912 0.3937007874015747699 0 2.591183660227387936e-16 F 0 F 0.9525000000000010125 #
edge $-1 -1 $-1 $453 0 $495 1.587499999999999911 $451 $565 forward @7 unknown #
face $566 -1 $-1 $567 $452 $5 $-1 $568 forward single #
point $-1 -1 $-1 -1.400000000000001021 0 0.274999999999999134 #
straight-curve $-1 -1 $-1 -1.052893716021988002 0 0.4042350776587589345 -0 -0.3937007874015747699 -0 F -1.784350999999999798 F 0.196851000000000026 #
ATTRIB_CUSTOM-attrib $-1 -1 $-1 $458 $400 @22 FPM_tracked_attrib_def 1 1204 #
DXID-attrib $-1 -1 $569 $-1 $459 @10 ASM ENTITY @2 29 #
loop $-1 -1 $-1 $-1 $570 $459 #
cone-surface $-1 -1 $-1 -1.100000000000000089 0 0 0 1 0 0.249999999999999889 0 0 1 I I 0 -1 0.249999999999999889 forward I I I I #
coedge $-1 -1 $-1 $571 $461 $572 $573 reversed $146 $-1 #
edge $-1 -1 $-1 $574 -1.042000000000000259 $486 -0.07383028435497496211 $461 $575 forward @7 unknown #
ellipse-curve $-1 -1 $-1 1.049999999999999378 0.624999999999999889 -0.4290670410846362803 -0 -1 -0 -0.01662313296960423945 0 0.01867274618996510663 1 I I #
ATTRIB_CUSTOM-attrib $-1 -1 $-1 $-1 $466 @17 sketch_attrib_def 1 1 2 138 0 1 1 1 0 #
coedge $-1 -1 $-1 $466 $576 $577 $578 reversed $72 $-1 #
coedge $579 -1 $-1 $580 $581 $466 $524 reversed $582 $-1 #
edge $-1 -1 $-1 $583 0.07383028435497496211 $529 1.042000000000000259 $523 $584 forward @7 unknown #
ATTRIB_CUSTOM-attrib $-1 -1 $-1 $-1 $467 @17 sketch_attrib_def 1 1 2 120 0 1 2 2 0 #
coedge $-1 -1 $-1 $572 $467 $581 $585 forward $528 $-1 #
coedge $-1 -1 $-1 $467 $572 $470 $531 reversed $528 $-1 #
loop $-1 -1 $-1 $-1 $467 $586 #
vertex $-1 -1 $-1 $468 $587 #
straight-curve $-1 -1 $-1 1.399999999999999689 0 -0.8102362204724417039 -0.3937007874015747699 0 2.030161224810394338e-16 F 0.9525000000000014566 F 6.159499999999997755 #
edge $-1 -1 $-1 $471 0 $574 1.587499999999999911 $470 $588 forward @7 unknown #
point $-1 -1 $-1 1.024999999999999245 0 -0.8102362204724414818 #
point $-1 -1 $-1 -1.520000000000000906 0.3125000000000040523 0.2749999999999993006 #
coedge $589 -1 $-1 $590 $591 $501 $557 forward $477 $-1 #
coedge $592 -1 $-1 $593 $594 $595 $596 reversed $479 $-1 #
DXID-attrib $-1 -1 $597 $-1 $480 @10 ASM ENTITY @2 30 #
face $598 -1 $-1 $426 $599 $5 $-1 $600 forward single #
plane-surface $-1 -1 $-1 -1.775000000000000799 0 -0.02499999999999930056 7.690776393656654055e-16 0 1 0.3937007874015747699 0 -3.027864721912068374e-16 forward_v I I I I #
ATTRIB_CUSTOM-attrib $-1 -1 $-1 $-1 $482 @17 sketch_attrib_def 1 1 2 116 0 1 1 1 0 #
coedge $-1 -1 $-1 $601 $482 $602 $603 forward $425 $-1 #
coedge $-1 -1 $-1 $482 $601 $604 $605 reversed $425 $-1 #
coedge $606 -1 $-1 $576 $607 $482 $543 forward $72 $-1 #
edge $-1 -1 $-1 $608 0 $609 0.9525000000000005684 $482 $610 forward @7 unknown #
ATTRIB_CUSTOM-attrib $-1 -1 $-1 $483 $426 @22 FPM_tracked_attrib_def 1 1204 #
point $-1 -1 $-1 1.024999999999999467 0.624999999999999889 -0.4290670410846362803 #
DXID-attrib $-1 -1 $-1 $-1 $489 @10 ASM ENTITY @2 22 #
plane-surface $-1 -1 $-1 -1.400000000000001021 0 0.274999999999999134 -6.581606496977565339e-16 0 1 -0.3937007874015747699 -0 -2.591183660227387936e-16 reverse_v I I I I #
coedge $-1 -1 $-1 $492 $611 $612 $613 reversed $146 $-1 #
coedge $-1 -1 $-1 $560 $559 $492 $550 forward $490 $-1 #
edge $-1 -1 $-1 $551 -0.6350000000000000089 $614 -0 $549 $615 forward @7 unknown #
vertex $-1 -1 $-1 $563 $616 #
straight-curve $-1 -1 $-1 -1.775000000000001243 0.624999999999999889 0.274999999999998912 -0.3937007874015747699 0 -2.591183660227387936e-16 I I #
point $-1 -1 $-1 -1.400000000000001021 0.624999999999999889 0.274999999999999134 #
point $-1 -1 $-1 -1.882481752317060349e-16 0.624999999999999889 0.6102362204724411932 #
ATTRIB_CUSTOM-attrib $-1 -1 $-1 $-1 $501 @17 sketch_attrib_def 1 1 2 112 0 1 1 1 0 #
coedge $617 -1 $-1 $595 $501 $570 $618 forward $72 $-1 #
edge $-1 -1 $-1 $619 0 $561 1.082682977437298355 $534 $620 forward @7 unknown #
ATTRIB_CUSTOM-attrib $-1 -1 $-1 $-1 $502 @17 sketch_attrib_def 1 1 2 114 0 1 1 1 0 #
coedge $-1 -1 $-1 $549 $502 $506 $563 forward $490 $-1 #
coedge $-1 -1 $-1 $502 $549 $590 $621 reversed $490 $-1 #
vertex $-1 -1 $-1 $503 $622 #
straight-curve $-1 -1 $-1 -1.775000000000000799 0 0.02499999999999893974 -6.721221571908793025e-16 0 0.3937007874015747699 F 0 F 0.6350000000000000089 #
edge $-1 -1 $-1 $508 0 $551 1.587499999999999911 $506 $623 forward @7 unknown #
point $-1 -1 $-1 -1.775000000000001243 0 0.274999999999998912 #
straight-curve $-1 -1 $-1 -1.400000000000001021 0 0.274999999999999134 0 0.3937007874015747699 0 I I #
DXID-attrib $-1 -1 $-1 $-1 $511 @10 ASM ENTITY @2 23 #
face $624 -1 $-1 $625 $626 $5 $-1 $627 forward single #
cone-surface $-1 -1 $-1 -1.100000000000000089 0 -1.510843419278983143e-16 -0 -1 -0 0.07500000000000078826 0 0.3999999999999999667 1 I I -0 1 0.4069705149024928081 reversed I I I I #
ATTRIB_CUSTOM-attrib $-1 -1 $-1 $515 $459 @22 FPM_tracked_attrib_def 1 1204 #
coedge $628 -1 $-1 $629 $630 $556 $618 reversed $516 $-1 #
coedge $-1 -1 $-1 $631 $518 $632 $633 forward $146 $-1 #
coedge $-1 -1 $-1 $527 $526 $518 $573 forward $528 $-1 #
edge $-1 -1 $-1 $634 -6.159499999999997755 $574 -0.9525000000000014566 $518 $635 forward @7 unknown #
vertex $-1 -1 $-1 $573 $636 #
straight-curve $-1 -1 $-1 1.024999999999999467 0.624999999999999889 -0.4000000000000005218 2.030161224810394338e-16 0 0.3937007874015747699 I I #
coedge $637 -1 $-1 $522 $542 $638 $639 reversed $72 $-1 #
coedge $-1 -1 $-1 $640 $641 $522 $578 forward $626 $-1 #
edge $-1 -1 $-1 $583 -0.8434025001649267939 $642 0.8434025001649336772 $577 $643 forward @7 unknown #
ATTRIB_CUSTOM-attrib $-1 -1 $-1 $-1 $523 @17 sketch_attrib_def 1 1 2 138 0 1 1 1 0 #
coedge $-1 -1 $-1 $632 $523 $641 $644 reversed $582 $-1 #
coedge $-1 -1 $-1 $523 $632 $526 $585 reversed $582 $-1 #
loop $-1 -1 $-1 $-1 $580 $645 #
vertex $-1 -1 $-1 $524 $646 #
straight-curve $-1 -1 $-1 -1.024999999999999245 0 -0.3999999999999999667 0 0 -0.3937007874015747699 F 0 F 1.042000000000000259 #
edge $-1 -1 $-1 $529 0 $634 1.587499999999999911 $526 $647 forward @7 unknown #
face $648 -1 $-1 $400 $528 $5 $-1 $649 forward single #
point $-1 -1 $-1 -1.024999999999999245 0 -0.8102362204724410377 #
straight-curve $-1 -1 $-1 1.024999999999999245 0 -0.8102362204724414818 0 0.3937007874015747699 0 I I #
ATTRIB_CUSTOM-attrib $-1 -1 $-1 $-1 $534 @17 sketch_attrib_def 1 1 2 112 0 1 1 1 0 #
coedge $-1 -1 $-1 $612 $534 $560 $621 forward $477 $-1 #
coedge $-1 -1 $-1 $534 $612 $629 $650 reversed $477 $-1 #
ATTRIB_CUSTOM-attrib $-1 -1 $-1 $-1 $535 @17 sketch_attrib_def 1 1 2 112 0 1 1 1 0 #
coedge $-1 -1 $-1 $651 $535 $630 $652 forward $479 $-1 #
coedge $-1 -1 $-1 $535 $651 $653 $654 reversed $479 $-1 #
coedge $655 -1 $-1 $607 $556 $535 $596 forward $72 $-1 #
edge $-1 -1 $-1 $656 0 $657 1.082682977437298355 $535 $658 forward @7 unknown #
ATTRIB_CUSTOM-attrib $-1 -1 $-1 $536 $480 @22 FPM_tracked_attrib_def 1 1204 #
DXID-attrib $-1 -1 $659 $-1 $537 @10 ASM ENTITY @2 31 #
loop $-1 -1 $-1 $-1 $660 $537 #
plane-surface $-1 -1 $-1 -1.775000000000001243 0 -0.2749999999999993006 -1 0 1.39870617275610261e-15 5.506717215575206785e-16 0 0.3937007874015747699 forward_v I I I I #
coedge $-1 -1 $-1 $541 $540 $661 $662 reversed $425 $-1 #
coedge $-1 -1 $-1 $660 $663 $540 $603 reversed $599 $-1 #
edge $-1 -1 $-1 $608 0 $664 1.587499999999999911 $540 $665 forward @7 unknown #
coedge $-1 -1 $-1 $666 $638 $541 $605 forward $667 $-1 #
edge $-1 -1 $-1 $609 0 $668 1.587499999999999911 $604 $669 forward @7 unknown #
ATTRIB_CUSTOM-attrib $-1 -1 $-1 $-1 $542 @17 sketch_attrib_def 1 1 2 116 0 1 1 1 0 #
coedge $670 -1 $-1 $542 $595 $660 $671 forward $72 $-1 #
vertex $-1 -1 $-1 $543 $672 #
vertex $-1 -1 $-1 $639 $673 #
straight-curve $-1 -1 $-1 -1.775000000000001243 0 -0.2749999999999993006 0.3937007874015747699 0 -1.376679303893800217e-16 F 0 F 0.9525000000000010125 #
coedge $-1 -1 $-1 $548 $674 $675 $676 forward $146 $-1 #
coedge $-1 -1 $-1 $591 $590 $548 $613 forward $477 $-1 #
edge $-1 -1 $-1 $614 -1.082682977437298355 $677 -0 $612 $678 forward @7 unknown #
vertex $-1 -1 $-1 $621 $679 #
straight-curve $-1 -1 $-1 -1.775000000000000799 0.624999999999999889 0.02499999999999893974 6.721221571908793025e-16 0 -0.3937007874015747699 I I #
point $-1 -1 $-1 -1.775000000000001243 0.624999999999999889 0.274999999999998912 #
ATTRIB_CUSTOM-attrib $-1 -1 $-1 $-1 $556 @17 sketch_attrib_def 1 1 2 104 0 1 1 2 0 #
edge $-1 -1 $-1 $619 -3.041425232428234704 $656 3.041425232428234704 $570 $680 forward @7 unknown #
vertex $-1 -1 $-1 $557 $681 #
straight-curve $-1 -1 $-1 -1.348746859276654941 0 0.0249999999999993977 -0.3937007874015747699 0 -4.242369078245655107e-16 F 0 F 1.082682977437298355 #
edge $-1 -1 $-1 $561 0 $614 1.587499999999999911 $560 $682 forward @7 unknown #
point $-1 -1 $-1 -1.775000000000000799 0 0.02499999999999893974 #
straight-curve $-1 -1 $-1 -1.775000000000001243 0 0.274999999999998912 0 0.3937007874015747699 0 I I #
DXID-attrib $-1 -1 $683 $-1 $567 @10 ASM ENTITY @2 24 #
face $684 -1 $-1 $645 $667 $5 $-1 $685 forward single #
loop $-1 -1 $-1 $-1 $577 $567 #
cone-surface $-1 -1 $-1 -1.049999999999999156 0 -0.4290670410846357807 0 1 0 0.01662313296960424985 0 0.01867274618996509622 1 I I 0 -1 0.02499999999999999792 forward I I I I #
ATTRIB_CUSTOM-attrib $-1 -1 $-1 $-1 $570 @17 sketch_attrib_def 1 1 2 104 0 1 1 2 0 #
coedge $-1 -1 $-1 $675 $570 $591 $650 forward $516 $-1 #
coedge $-1 -1 $-1 $570 $675 $593 $652 reversed $516 $-1 #
coedge $-1 -1 $-1 $686 $571 $687 $688 reversed $146 $-1 #
coedge $-1 -1 $-1 $581 $580 $571 $633 reversed $582 $-1 #
edge $-1 -1 $-1 $634 -1.042000000000000259 $689 -0.07383028435497496211 $632 $690 forward @7 unknown #
vertex $-1 -1 $-1 $585 $691 #
straight-curve $-1 -1 $-1 1.399999999999999689 0.624999999999999889 -0.8102362204724417039 0.3937007874015747699 0 -2.030161224810394338e-16 I I #
point $-1 -1 $-1 1.024999999999999245 0.624999999999999889 -0.8102362204724414818 #
ATTRIB_CUSTOM-attrib $-1 -1 $-1 $-1 $576 @17 sketch_attrib_def 1 1 2 136 0 0 1 1 0 #
coedge $692 -1 $-1 $604 $693 $576 $639 forward $667 $-1 #
edge $-1 -1 $-1 $642 0.06933927646073413664 $609 1.014197008784678333 $638 $694 forward @7 unknown #
coedge $-1 -1 $-1 $687 $577 $693 $695 forward $626 $-1 #
coedge $-1 -1 $-1 $577 $687 $580 $644 forward $626 $-1 #
vertex $-1 -1 $-1 $639 $696 #
ellipse-curve $-1 -1 $-1 -1.049999999999999156 0 -0.4290670410846357807 -0 -1 -0 0.01662313296960424985 0 0.01867274618996509622 1 I I #
edge $-1 -1 $-1 $689 -1.587499999999999911 $583 -0 $580 $697 forward @7 tangent #
face $698 -1 $-1 $586 $582 $5 $-1 $699 forward single #
point $-1 -1 $-1 -1.024999999999999245 0 -0.4290670410846357807 #
straight-curve $-1 -1 $-1 -1.024999999999999245 0 -0.8102362204724410377 0 0.3937007874015747699 0 I I #
DXID-attrib $-1 -1 $700 $-1 $586 @10 ASM ENTITY @2 27 #
plane-surface $-1 -1 $-1 0 0 -0.8102362204724410377 0 0 -1 -0.3937007874015747699 -0 -0 forward_v I I I I #
edge $-1 -1 $-1 $619 0 $677 1.587499999999999911 $591 $701 forward @7 unknown #
coedge $-1 -1 $-1 $594 $593 $674 $702 reversed $479 $-1 #
edge $-1 -1 $-1 $656 0 $703 1.587499999999999911 $593 $704 forward @7 unknown #
coedge $-1 -1 $-1 $663 $660 $594 $654 forward $599 $-1 #
edge $-1 -1 $-1 $657 0 $705 1.587499999999999911 $653 $706 forward @7 unknown #
ATTRIB_CUSTOM-attrib $-1 -1 $-1 $-1 $595 @17 sketch_attrib_def 1 1 2 112 0 1 1 1 0 #
vertex $-1 -1 $-1 $596 $707 #
vertex $-1 -1 $-1 $671 $708 #
straight-curve $-1 -1 $-1 -1.348746859276654941 0 -0.02499999999999962669 -0.3937007874015747699 0 3.027864721912068374e-16 F 0 F 1.082682977437298355 #
ATTRIB_CUSTOM-attrib $-1 -1 $-1 $598 $537 @22 FPM_tracked_attrib_def 1 1204 #
coedge $709 -1 $-1 $653 $602 $607 $671 reversed $599 $-1 #
coedge $-1 -1 $-1 $710 $686 $601 $662 forward $146 $-1 #
edge $-1 -1 $-1 $668 -0.9525000000000005684 $664 -0 $601 $711 forward @7 unknown #
coedge $-1 -1 $-1 $602 $653 $710 $712 reversed $599 $-1 #
vertex $-1 -1 $-1 $603 $713 #
straight-curve $-1 -1 $-1 -1.775000000000001243 0 -0.2749999999999993006 0 0.3937007874015747699 0 I I #
coedge $-1 -1 $-1 $693 $604 $686 $714 reversed $667 $-1 #
loop $-1 -1 $-1 $-1 $693 $625 #
vertex $-1 -1 $-1 $605 $715 #
straight-curve $-1 -1 $-1 -1.400000000000001021 0 -0.2749999999999994116 0 0.3937007874015747699 0 I I #
ATTRIB_CUSTOM-attrib $-1 -1 $-1 $-1 $607 @17 sketch_attrib_def 1 1 2 114 0 1 1 1 0 #
edge $-1 -1 $-1 $657 0 $608 0.6350000000000000089 $660 $716 forward @7 unknown #
point $-1 -1 $-1 -1.775000000000001243 0 -0.2749999999999993006 #
point $-1 -1 $-1 -1.400000000000001021 0 -0.2749999999999994116 #
coedge $-1 -1 $-1 $611 $710 $651 $702 forward $146 $-1 #
coedge $-1 -1 $-1 $630 $629 $611 $676 reversed $516 $-1 #
edge $-1 -1 $-1 $703 -3.041425232428234704 $677 3.041425232428234704 $675 $717 forward @7 unknown #
vertex $-1 -1 $-1 $650 $718 #
straight-curve $-1 -1 $-1 -1.348746859276654941 0.624999999999999889 0.0249999999999993977 0.3937007874015747699 0 4.242369078245655107e-16 I I #
point $-1 -1 $-1 -1.775000000000000799 0.624999999999999889 0.02499999999999893974 #
ellipse-curve $-1 -1 $-1 -1.100000000000000089 0 0 0 1 0 0.249999999999999889 0 0 1 F -3.041425232428234704 F 3.041425232428234704 #
point $-1 -1 $-1 -1.348746859276654941 0 0.0249999999999993977 #
straight-curve $-1 -1 $-1 -1.775000000000000799 0 0.02499999999999893974 0 0.3937007874015747699 0 I I #
ATTRIB_CUSTOM-attrib $-1 -1 $-1 $624 $567 @22 FPM_tracked_attrib_def 1 1208 #
DXID-attrib $-1 -1 $719 $-1 $625 @10 ASM ENTITY @2 25 #
cone-surface $-1 -1 $-1 -1.100000000000000089 0 0 0 1 0 0.07500000000000089928 0 -0.3999999999999999667 1 I I 0 1 0.4069705149024928081 forward I I I I #
coedge $-1 -1 $-1 $661 $631 $666 $714 forward $146 $-1 #
coedge $-1 -1 $-1 $641 $640 $631 $688 forward $626 $-1 #
edge $-1 -1 $-1 $720 -0.8434025001649336772 $689 0.8434025001649267939 $687 $721 forward @7 unknown #
vertex $-1 -1 $-1 $688 $722 #
straight-curve $-1 -1 $-1 -1.024999999999999245 0.624999999999999889 -0.3999999999999999667 0 0 0.3937007874015747699 I I #
point $-1 -1 $-1 -1.024999999999999245 0.624999999999999889 -0.8102362204724410377 #
ATTRIB_CUSTOM-attrib $-1 -1 $-1 $-1 $638 @17 sketch_attrib_def 1 1 2 136 0 0 1 1 0 #
coedge $-1 -1 $-1 $638 $666 $640 $695 reversed $667 $-1 #
ellipse-curve $-1 -1 $-1 -1.100000000000000089 0 0 0 1 0 0.07500000000000089928 0 -0.3999999999999999667 1 F 0 F 1.014197008784678333 #
edge $-1 -1 $-1 $642 0 $720 1.587499999999999911 $693 $723 forward @7 tangent #
point $-1 -1 $-1 -1.05289371602198778 0 -0.4042350776587590455 #
straight-curve $-1 -1 $-1 -1.024999999999999245 0 -0.4290670410846357807 -0 -0.3937007874015747699 -0 F -1.784350999999999798 F 0.196851000000000026 #
DXID-attrib $-1 -1 $724 $-1 $645 @10 ASM ENTITY @2 26 #
plane-surface $-1 -1 $-1 -1.024999999999999245 0 -0.8102362204724410377 -1 0 0 0 0 0.3937007874015747699 forward_v I I I I #
ATTRIB_CUSTOM-attrib $-1 -1 $-1 $648 $586 @22 FPM_tracked_attrib_def 1 1204 #
straight-curve $-1 -1 $-1 -1.348746859276654941 0 0.0249999999999993977 0 0.3937007874015747699 0 I I #
edge $-1 -1 $-1 $705 -1.082682977437298355 $703 -0 $651 $725 forward @7 unknown #
vertex $-1 -1 $-1 $652 $726 #
straight-curve $-1 -1 $-1 -1.348746859276654941 0 -0.02499999999999962669 0 0.3937007874015747699 0 I I #
vertex $-1 -1 $-1 $654 $727 #
straight-curve $-1 -1 $-1 -1.775000000000000799 0 -0.02499999999999930056 0 0.3937007874015747699 0 I I #
point $-1 -1 $-1 -1.348746859276654941 0 -0.02499999999999962669 #
point $-1 -1 $-1 -1.775000000000000799 0 -0.02499999999999930056 #
ATTRIB_CUSTOM-attrib $-1 -1 $-1 $-1 $660 @17 sketch_attrib_def 1 1 2 114 0 1 1 1 0 #
coedge $-1 -1 $-1 $674 $661 $663 $712 forward $146 $-1 #
straight-curve $-1 -1 $-1 -1.775000000000001243 0.624999999999999889 -0.2749999999999993006 -0.3937007874015747699 0 1.376679303893800217e-16 I I #
edge $-1 -1 $-1 $664 -0.6350000000000000089 $705 -0 $663 $728 forward @7 unknown #
point $-1 -1 $-1 -1.775000000000001243 0.624999999999999889 -0.2749999999999993006 #
edge $-1 -1 $-1 $720 0.06933927646073413664 $668 1.014197008784678333 $666 $729 forward @7 unknown #
point $-1 -1 $-1 -1.400000000000001021 0.624999999999999889 -0.2749999999999994116 #
straight-curve $-1 -1 $-1 -1.775000000000000799 0 -0.02499999999999930056 -5.506717215575206785e-16 0 -0.3937007874015747699 F 0 F 0.6350000000000000089 #
ellipse-curve $-1 -1 $-1 -1.100000000000000089 0.624999999999999889 0 -0 -1 -0 0.249999999999999889 0 0 1 I I #
point $-1 -1 $-1 -1.348746859276654941 0.624999999999999889 0.02499999999999937689 #
ATTRIB_CUSTOM-attrib $-1 -1 $-1 $684 $625 @22 FPM_tracked_attrib_def 1 1204 #
vertex $-1 -1 $-1 $714 $730 #
ellipse-curve $-1 -1 $-1 -1.049999999999999156 0.624999999999999889 -0.4290670410846357807 0 1 0 0.01662313296960424985 0 0.01867274618996509622 1 I I #
point $-1 -1 $-1 -1.024999999999999245 0.624999999999999889 -0.4290670410846357807 #
straight-curve $-1 -1 $-1 -1.05289371602198778 0 -0.4042350776587590455 0 0.3937007874015747699 0 F -0.196851000000000026 F 1.784350999999999798 #
ATTRIB_CUSTOM-attrib $-1 -1 $-1 $698 $645 @22 FPM_tracked_attrib_def 1 1204 #
straight-curve $-1 -1 $-1 -1.348746859276654941 0.624999999999999889 -0.02499999999999962669 0.3937007874015747699 0 -3.027864721912068374e-16 I I #
point $-1 -1 $-1 -1.348746859276654941 0.624999999999999889 -0.02499999999999960587 #
point $-1 -1 $-1 -1.775000000000000799 0.624999999999999889 -0.02499999999999930056 #
straight-curve $-1 -1 $-1 -1.775000000000000799 0.624999999999999889 -0.02499999999999930056 5.506717215575206785e-16 0 0.3937007874015747699 I I #
ellipse-curve $-1 -1 $-1 -1.100000000000000089 0.624999999999999889 0 0 1 0 0.07500000000000089928 0 -0.3999999999999999667 1 I I #
point $-1 -1 $-1 -1.05289371602198778 0.624999999999999889 -0.4042350776587590455 #
End-of-ACIS-data 