700 0 1 0           
30 Autodesk Translation Framework 18 ASM 223.11.0.30 NT 24 Mon Oct 16 07:50:21 2017 
25.39999999999999858 9.999999999999999547e-07 1.000000000000000036e-10 
body $1 -1 $-1 $2 $-1 $3 #
rgb_color-st-attrib $-1 -1 $4 $-1 $0 0.627450980392156854 0.627450980392156854 0.627450980392156854 #
lump $-1 -1 $-1 $-1 $5 $0 #
transform $-1 -1 1 0 0 0 1 0 0 0 1 0 0 0 1 no_rotate no_reflect no_shear #
ATTRIB_CUSTOM-attrib $-1 -1 $-1 $1 $0 @20 Timestamp_attrib_def 1 1508153263259443 #
shell $6 -1 $-1 $-1 $-1 $7 $-1 $2 #
string_attrib-name_attrib-gen-attrib $-1 -1 $-1 $-1 $5 keep keep_kept ignore copy @17 ATF_ExternalShell @4 true #
face $8 -1 $-1 $9 $10 $5 $-1 $11 reversed single #
DXID-attrib $-1 -1 $-1 $-1 $7 @10 ASM ENTITY @1 0 #
face $12 -1 $-1 $13 $14 $5 $-1 $15 forward single #
loop $-1 -1 $-1 $-1 $16 $7 #
cone-surface $-1 -1 $-1 0 -0.0099999999999999898 -0.0099999999999999898 0 0.7071067811865475727 -0.7071067811865474617 -0.1750000000000000167 1.397324561977310932e-17 1.397324561977310932e-17 0.7879189847507241939 I I 0 1 0.1750000000000000167 forward I I I I #
DXID-attrib $-1 -1 $-1 $-1 $9 @10 ASM ENTITY @1 1 #
face $17 -1 $-1 $18 $19 $5 $-1 $20 forward single #
loop $-1 -1 $-1 $-1 $21 $9 #
cone-surface $-1 -1 $-1 0 0 -0.0199999999999999796 0 1 0 3.114037595263721699e-17 0 0.1949999999999999789 0.8974358974358976893 I I 0 -1 0.1949999999999999789 forward I I I I #
coedge $-1 -1 $-1 $22 $23 $24 $25 reversed $10 $-1 #
DXID-attrib $-1 -1 $-1 $-1 $13 @10 ASM ENTITY @1 2 #
face $26 -1 $-1 $27 $28 $5 $-1 $29 forward single #
loop $-1 -1 $-1 $30 $31 $13 #
cone-surface $-1 -1 $-1 0.4749999999999999223 0 0 0 1 0 0.09500000000000001499 0 0 1 I I 0 -1 0.09500000000000001499 forward I I I I #
coedge $-1 -1 $-1 $32 $33 $34 $35 forward $14 $-1 #
coedge $-1 -1 $-1 $34 $16 $36 $37 forward $10 $-1 #
coedge $-1 -1 $-1 $16 $34 $38 $39 reversed $10 $-1 #
coedge $-1 -1 $-1 $33 $32 $16 $25 forward $14 $-1 #
edge $-1 -1 $-1 $40 -1.570796326794896558 $41 -1.167657258502950102 $24 $42 forward @7 unknown #
DXID-attrib $-1 -1 $-1 $-1 $18 @10 ASM ENTITY @1 3 #
face $43 -1 $-1 $44 $45 $5 $-1 $46 forward single #
loop $-1 -1 $-1 $47 $48 $18 #
cone-surface $-1 -1 $-1 -0.4749999999999999223 0 0 0 1 0 0.09500000000000001499 0 0 1 I I 0 -1 0.09500000000000001499 forward I I I I #
loop $-1 -1 $-1 $-1 $49 $13 #
coedge $-1 -1 $-1 $31 $31 $50 $51 reversed $19 $-1 #
coedge $52 -1 $-1 $24 $21 $53 $54 forward $14 $-1 #
coedge $-1 -1 $-1 $21 $24 $55 $56 reversed $14 $-1 #
coedge $-1 -1 $-1 $23 $22 $21 $35 reversed $10 $-1 #
edge $-1 -1 $-1 $57 1.167657258502950102 $58 1.570796326794896558 $21 $42 forward @7 unknown #
coedge $59 -1 $-1 $53 $53 $22 $37 reversed $60 $-1 #
edge $-1 -1 $-1 $40 -4.712388980384689674 $58 -1.570796326794896558 $36 $61 forward @7 unknown #
coedge $-1 -1 $-1 $55 $55 $23 $39 forward $62 $-1 #
edge $-1 -1 $-1 $41 1.167657258502950546 $57 5.115528048676635464 $38 $63 forward @7 unknown #
vertex $-1 -1 $-1 $37 $64 #
vertex $-1 -1 $-1 $25 $65 #
ellipse-curve $-1 -1 $-1 0 1.365923996832131455e-18 -0.0199999999999999796 -1.570782296064780476e-17 -0.4472135954999578167 -0.8944271909999158554 1.557018797631860541e-17 0.3899999999999999023 -0.1949999999999998956 0.4013455344230393296 I I #
DXID-attrib $-1 -1 $-1 $-1 $27 @10 ASM ENTITY @1 4 #
face $66 -1 $-1 $67 $68 $5 $-1 $69 forward single #
loop $-1 -1 $-1 $-1 $70 $27 #
plane-surface $-1 -1 $-1 -0.6999999944149977171 0 0.3000000119678618571 0 0 1 0.3937007874015747699 0 0 forward_v I I I I #
loop $-1 -1 $-1 $-1 $71 $18 #
coedge $-1 -1 $-1 $48 $48 $72 $73 reversed $28 $-1 #
coedge $74 -1 $-1 $49 $49 $75 $76 forward $30 $-1 #
coedge $-1 -1 $-1 $50 $50 $31 $51 forward $77 $-1 #
edge $-1 -1 $-1 $78 -3.141592653589793116 $78 3.141592653589793116 $31 $79 forward @7 unknown #
ATTRIB_CUSTOM-attrib $-1 -1 $-1 $-1 $32 @17 sketch_attrib_def 1 1 2 121 0 -1 1 1 0 #
coedge $80 -1 $-1 $36 $36 $32 $54 reversed $60 $-1 #
edge $-1 -1 $-1 $58 -1.570796326794896558 $40 1.57079632679489678 $32 $61 forward @7 unknown #
coedge $-1 -1 $-1 $38 $38 $33 $56 forward $62 $-1 #
edge $-1 -1 $-1 $57 -1.97393539508684257 $41 1.973935395086843014 $33 $81 forward @7 unknown #
vertex $-1 -1 $-1 $56 $82 #
vertex $-1 -1 $-1 $54 $83 #
ATTRIB_CUSTOM-attrib $-1 -1 $-1 $-1 $36 @17 sketch_attrib_def 1 1 2 121 0 -1 1 1 0 #
loop $-1 -1 $-1 $84 $36 $85 #
ellipse-curve $-1 -1 $-1 0 0 -0.0199999999999999796 0 -1 0 3.114037595263721699e-17 0 0.1949999999999999789 0.8974358974358975782 I I #
loop $-1 -1 $-1 $86 $38 $87 #
ellipse-curve $-1 -1 $-1 0 0.1529999999999999971 -0.1729999999999999316 -0 -1 -0 1.557018797631860541e-17 0 0.1949999999999999512 0.8974358974358978003 I I #
point $-1 -1 $-1 -0.1750000000000000167 0 -0.01999999999999998307 #
point $-1 -1 $-1 -0.1609709582759698554 0.1529999999999999971 -0.09649999999999998856 #
DXID-attrib $-1 -1 $-1 $-1 $44 @10 ASM ENTITY @1 5 #
face $88 -1 $-1 $89 $90 $5 $-1 $91 forward single #
loop $-1 -1 $-1 $-1 $92 $44 #
plane-surface $-1 -1 $-1 -0.6999999944149977171 0 -0.4500000071807168656 -1 0 0 0 0 0.3937007874015747699 forward_v I I I I #
coedge $93 -1 $-1 $94 $95 $96 $97 reversed $45 $-1 #
coedge $98 -1 $-1 $71 $71 $99 $100 forward $47 $-1 #
coedge $-1 -1 $-1 $72 $72 $48 $73 forward $86 $-1 #
edge $-1 -1 $-1 $101 -3.141592653589793116 $101 3.141592653589793116 $48 $102 forward @7 unknown #
ATTRIB_CUSTOM-attrib $-1 -1 $-1 $-1 $49 @17 sketch_attrib_def 1 1 2 119 0 -1 1 1 0 #
coedge $103 -1 $-1 $75 $75 $49 $76 reversed $104 $-1 #
edge $-1 -1 $-1 $105 -3.141592653589793116 $105 3.141592653589793116 $49 $106 forward @7 unknown #
loop $-1 -1 $-1 $107 $50 $87 #
vertex $-1 -1 $-1 $51 $108 #
ellipse-curve $-1 -1 $-1 0.4749999999999999223 0.1529999999999999971 0 0 -1 0 0.09500000000000001499 0 0 1 I I #
ATTRIB_CUSTOM-attrib $-1 -1 $-1 $-1 $53 @17 sketch_attrib_def 1 1 2 121 0 -1 1 1 0 #
ellipse-curve $-1 -1 $-1 0 0.1529999999999999971 -0.0199999999999999796 0 -1 0 3.114037595263721699e-17 0 0.1949999999999999789 0.8974358974358975782 I I #
point $-1 -1 $-1 0.1609709582759698554 0.1529999999999999971 -0.09649999999999994693 #
point $-1 -1 $-1 0.1750000000000000167 0 -0.01999999999999999695 #
loop $-1 -1 $-1 $104 $99 $85 #
face $109 -1 $-1 $-1 $60 $5 $-1 $110 reversed single #
loop $-1 -1 $-1 $77 $72 $87 #
face $111 -1 $-1 $85 $62 $5 $-1 $112 forward single #
DXID-attrib $-1 -1 $-1 $-1 $67 @10 ASM ENTITY @1 6 #
face $113 -1 $-1 $87 $114 $5 $-1 $115 forward single #
loop $-1 -1 $-1 $-1 $116 $67 #
plane-surface $-1 -1 $-1 0.7000000055850021941 0 -0.4500000071807168656 0 0 -1 -0.3937007874015747699 0 0 forward_v I I I I #
coedge $117 -1 $-1 $118 $119 $120 $121 forward $68 $-1 #
ATTRIB_CUSTOM-attrib $-1 -1 $-1 $-1 $70 @17 sketch_attrib_def 1 1 2 107 0 1 1 1 0 #
coedge $-1 -1 $-1 $122 $70 $123 $124 forward $45 $-1 #
coedge $-1 -1 $-1 $70 $122 $118 $125 reversed $45 $-1 #
coedge $126 -1 $-1 $120 $127 $70 $97 forward $128 $-1 #
edge $-1 -1 $-1 $129 0 $130 3.55600000000000005 $70 $131 forward @7 unknown #
ATTRIB_CUSTOM-attrib $-1 -1 $-1 $-1 $71 @17 sketch_attrib_def 1 1 2 117 0 -1 1 1 0 #
coedge $132 -1 $-1 $99 $99 $71 $100 reversed $84 $-1 #
edge $-1 -1 $-1 $133 -3.141592653589793116 $133 3.141592653589793116 $71 $134 forward @7 unknown #
vertex $-1 -1 $-1 $73 $135 #
ellipse-curve $-1 -1 $-1 -0.4749999999999999223 0.1529999999999999971 0 0 -1 0 0.09500000000000001499 0 0 1 I I #
ATTRIB_CUSTOM-attrib $-1 -1 $-1 $-1 $75 @17 sketch_attrib_def 1 1 2 119 0 -1 1 1 0 #
loop $-1 -1 $-1 $128 $75 $85 #
vertex $-1 -1 $-1 $76 $136 #
ellipse-curve $-1 -1 $-1 0.4749999999999999223 0 0 0 -1 0 0.09500000000000001499 0 0 1 I I #
loop $-1 -1 $-1 $-1 $137 $87 #
point $-1 -1 $-1 0.3799999999999998934 0.1529999999999999971 0 #
DXID-attrib $-1 -1 $-1 $-1 $85 @10 ASM ENTITY @1 9 #
plane-surface $-1 -1 $-1 5.585002189507094739e-09 0 -0.07499999760642751812 0 1 0 0.3937007874015747699 0 0 forward_v I I I I #
DXID-attrib $-1 -1 $-1 $-1 $87 @10 ASM ENTITY @1 8 #
plane-surface $-1 -1 $-1 5.585002189507094739e-09 0.1529999999999999971 -0.07499999760642751812 0 1 0 0.3937007874015747699 0 0 forward_v I I I I #
DXID-attrib $-1 -1 $-1 $-1 $89 @10 ASM ENTITY @1 7 #
loop $-1 -1 $-1 $-1 $138 $89 #
plane-surface $-1 -1 $-1 0.7000000055850021941 0 0.3000000119678618571 1 0 0 0 0 -0.3937007874015747699 forward_v I I I I #
coedge $139 -1 $-1 $140 $141 $142 $143 forward $90 $-1 #
ATTRIB_CUSTOM-attrib $-1 -1 $144 $-1 $92 @17 sketch_attrib_def 1 1 2 108 0 1 1 1 0 #
coedge $-1 -1 $-1 $145 $92 $95 $125 forward $68 $-1 #
coedge $-1 -1 $-1 $92 $145 $140 $146 reversed $68 $-1 #
coedge $147 -1 $-1 $142 $96 $92 $121 reversed $128 $-1 #
edge $-1 -1 $-1 $148 0 $130 1.905000048637390142 $92 $149 forward @7 unknown #
coedge $-1 -1 $-1 $95 $94 $150 $151 reversed $45 $-1 #
coedge $-1 -1 $-1 $138 $152 $94 $124 reversed $114 $-1 #
edge $-1 -1 $-1 $129 0 $153 0.388620000000000021 $123 $154 forward @7 unknown #
edge $-1 -1 $-1 $130 0 $155 0.388620000000000021 $118 $156 forward @7 unknown #
ATTRIB_CUSTOM-attrib $-1 -1 $-1 $-1 $96 @17 sketch_attrib_def 1 1 2 107 0 1 1 1 0 #
coedge $157 -1 $-1 $96 $142 $138 $158 reversed $128 $-1 #
loop $-1 -1 $-1 $-1 $127 $85 #
vertex $-1 -1 $-1 $97 $159 #
vertex $-1 -1 $-1 $121 $160 #
straight-curve $-1 -1 $-1 0.7000000055850021941 0 0.3000000119678618571 -0.3937007874015747699 0 0 F 0 F 3.55600000000000005 #
ATTRIB_CUSTOM-attrib $-1 -1 $-1 $-1 $99 @17 sketch_attrib_def 1 1 2 117 0 -1 1 1 0 #
vertex $-1 -1 $-1 $100 $161 #
ellipse-curve $-1 -1 $-1 -0.4749999999999999223 0 0 0 -1 0 0.09500000000000001499 0 0 1 I I #
point $-1 -1 $-1 -0.5699999999999999512 0.1529999999999999971 0 #
point $-1 -1 $-1 0.3799999999999998934 0 1.163414459189985898e-17 #
coedge $-1 -1 $-1 $162 $150 $152 $163 forward $107 $-1 #
coedge $164 -1 $-1 $165 $123 $127 $158 forward $114 $-1 #
ATTRIB_CUSTOM-attrib $-1 -1 $-1 $-1 $116 @17 sketch_attrib_def 1 1 2 136 0 0 1 1 0 #
coedge $-1 -1 $-1 $166 $116 $119 $146 forward $90 $-1 #
coedge $-1 -1 $-1 $116 $166 $165 $167 reversed $90 $-1 #
coedge $168 -1 $-1 $127 $120 $116 $143 reversed $128 $-1 #
edge $-1 -1 $-1 $169 0 $148 3.55600000000000005 $116 $170 forward @7 unknown #
ATTRIB_CUSTOM-attrib $-1 -1 $-1 $117 $92 @17 sketch_attrib_def 1 1 2 137 0 0 1 1 0 #
coedge $-1 -1 $-1 $119 $118 $171 $172 reversed $68 $-1 #
edge $-1 -1 $-1 $148 0 $173 0.388620000000000021 $140 $174 forward @7 unknown #
ATTRIB_CUSTOM-attrib $-1 -1 $175 $-1 $120 @17 sketch_attrib_def 1 1 2 137 0 0 1 1 0 #
vertex $-1 -1 $-1 $143 $176 #
straight-curve $-1 -1 $-1 -0.6999999944149977171 0 -0.4500000071807168656 0 0 0.3937007874015747699 F 0 F 1.905000048637390142 #
coedge $-1 -1 $-1 $137 $171 $122 $151 forward $107 $-1 #
edge $-1 -1 $-1 $155 -3.55600000000000005 $153 -0 $122 $177 forward @7 unknown #
coedge $-1 -1 $-1 $123 $165 $137 $163 reversed $114 $-1 #
vertex $-1 -1 $-1 $124 $178 #
straight-curve $-1 -1 $-1 0.7000000055850021941 0 0.3000000119678618571 0 0.3937007874015747699 0 I I #
vertex $-1 -1 $-1 $125 $179 #
straight-curve $-1 -1 $-1 -0.6999999944149977171 0 0.3000000119678618571 0 0.3937007874015747699 0 I I #
ATTRIB_CUSTOM-attrib $-1 -1 $180 $-1 $127 @17 sketch_attrib_def 1 1 2 135 0 0 1 1 0 #
edge $-1 -1 $-1 $129 -1.524000048637390359 $169 0.3809999999999997833 $138 $181 forward @7 unknown #
point $-1 -1 $-1 0.7000000055850021941 0 0.3000000119678618571 #
point $-1 -1 $-1 -0.6999999944149977171 0 0.3000000119678618571 #
point $-1 -1 $-1 -0.5699999999999999512 0 1.163414459189985898e-17 #
coedge $-1 -1 $-1 $171 $137 $166 $182 forward $107 $-1 #
edge $-1 -1 $-1 $153 -1.524000048637390359 $183 0.3809999999999997833 $152 $184 forward @7 unknown #
ATTRIB_CUSTOM-attrib $-1 -1 $185 $-1 $138 @17 sketch_attrib_def 1 1 2 106 0 1 1 1 0 #
coedge $-1 -1 $-1 $152 $138 $141 $167 forward $114 $-1 #
coedge $-1 -1 $-1 $141 $140 $162 $182 reversed $90 $-1 #
edge $-1 -1 $-1 $169 0 $183 0.388620000000000021 $165 $186 forward @7 unknown #
ATTRIB_CUSTOM-attrib $-1 -1 $-1 $-1 $142 @17 sketch_attrib_def 1 1 2 136 0 0 1 1 0 #
vertex $-1 -1 $-1 $158 $187 #
straight-curve $-1 -1 $-1 0.7000000055850021941 0 -0.4500000071807168656 -0.3937007874015747699 0 0 F 0 F 3.55600000000000005 #
coedge $-1 -1 $-1 $150 $162 $145 $172 forward $107 $-1 #
edge $-1 -1 $-1 $173 0 $155 1.905000048637390142 $145 $188 forward @7 unknown #
vertex $-1 -1 $-1 $146 $189 #
straight-curve $-1 -1 $-1 -0.6999999944149977171 0 -0.4500000071807168656 0 0.3937007874015747699 0 I I #
ATTRIB_CUSTOM-attrib $-1 -1 $-1 $147 $120 @17 sketch_attrib_def 1 1 2 108 0 1 1 1 0 #
point $-1 -1 $-1 -0.6999999944149977171 0 -0.4500000071807168656 #
straight-curve $-1 -1 $-1 0.7000000055850021941 0.1529999999999999971 0.3000000119678618571 0.3937007874015747699 0 0 I I #
point $-1 -1 $-1 0.7000000055850021941 0.1529999999999999971 0.3000000119678619126 #
point $-1 -1 $-1 -0.6999999944149977171 0.1529999999999999971 0.3000000119678619126 #
ATTRIB_CUSTOM-attrib $-1 -1 $-1 $157 $127 @17 sketch_attrib_def 1 1 2 106 0 1 1 1 0 #
straight-curve $-1 -1 $-1 0.7000000055850021941 0 -0.3000000071807169544 0 0 -0.3937007874015747699 F -1.524000048637390359 F 0.3809999999999997833 #
edge $-1 -1 $-1 $183 0 $173 3.55600000000000005 $166 $190 forward @7 unknown #
vertex $-1 -1 $-1 $167 $191 #
straight-curve $-1 -1 $-1 0.7000000055850021941 0.1529999999999999971 -0.3000000071807169544 0 0 -0.3937007874015747699 I I #
ATTRIB_CUSTOM-attrib $-1 -1 $-1 $164 $138 @17 sketch_attrib_def 1 1 2 135 0 0 1 1 0 #
straight-curve $-1 -1 $-1 0.7000000055850021941 0 -0.4500000071807168656 0 0.3937007874015747699 0 I I #
point $-1 -1 $-1 0.7000000055850021941 0 -0.4500000071807168656 #
straight-curve $-1 -1 $-1 -0.6999999944149977171 0.1529999999999999971 -0.4500000071807168656 0 0 0.3937007874015747699 I I #
point $-1 -1 $-1 -0.6999999944149977171 0.1529999999999999971 -0.4500000071807168656 #
straight-curve $-1 -1 $-1 0.7000000055850021941 0.1529999999999999971 -0.4500000071807168656 -0.3937007874015747699 0 0 I I #
point $-1 -1 $-1 0.7000000055850021941 0.1529999999999999971 -0.4500000071807168656 #
End-of-ACIS-data 